<svg xmlns="http://www.w3.org/2000/svg" viewBox="0 0 500 500"><g id="freepik--Floor--inject-428"><path id="freepik--floor--inject-428" d="M83.18,444.6C-9,396-9,317.15,83.18,268.53s241.51-48.63,333.64,0S509,396,416.82,444.6,175.31,493.23,83.18,444.6Z" style="fill:#f5f5f5"></path></g><g id="freepik--Shadows--inject-428"><path id="freepik--Shadow--inject-428" d="M404.93,329.28c-13.52-6.84-22.29-11.63-28.43-15.55-8.11-5.17-9.6-7.6-9.88-8.26.69-.84,4.1-2.46,9.88-2.92a26.48,26.48,0,0,0,11-2.94c3.41-2,5.29-4.95,5.29-8.4,0-4.36-3.12-8.66-8.54-11.8a33.84,33.84,0,0,0-16.44-4.31,21.23,21.23,0,0,0-10.54,2.43,12.45,12.45,0,0,0-6.08,7.91c-.52,2.17-2.87,4.72-7.78,4.79h-.18c-8.66,0-21.4-8.45-37.57-19.17L299.51,267l-2.14,1.23c-4.87,2.8-9.65,5.46-13.49,7.59-19,10.55-29.47,16.36-29.17,23.69.22,5.75,6.68,9.69,17.28,10.54,4.39.35,6.66,1.34,7.62,1.89.59.34,1.29.87,1.29,1.47,0,.78-.95,2.79-4.55,4.87a25.91,25.91,0,0,1-12.43,3.24,13.55,13.55,0,0,1-6.54-1.36,4.52,4.52,0,0,1-2.3-2.85c-1.2-4.95-6-10.79-15.46-10.91h-.3c-7.34,0-15,3.6-25.12,9.41-3,1.72-6.15,3.62-9.51,5.64-1.48.89-3,1.83-4.58,2.82-2.18,1.36-4.44,2.76-6.82,4.16l-1.92,1.1c-4.21,2.42-8.28,4.7-12.44,7-20.46,11.4-29.5,16.72-29.24,23.32.21,5.21,5.89,8.64,15.57,9.42,5,.4,7.62,1.56,8.76,2.22.84.49,1.85,1.28,1.85,2.27,0,1.37-1.58,3.65-5.11,5.69A28.92,28.92,0,0,1,156.91,383a16.37,16.37,0,0,1-7.94-1.69,5.57,5.57,0,0,1-2.86-3.5c-1.17-4.86-5.81-9.82-13.53-9.93h-.25c-8.58,0-18.06,5.69-32.44,14.34-3.4,2-8,4.84-13,7.71l-6.4,3.71,6.6,3.33c3.94,2,7.74,3.85,11.3,5.6,11.86,5.82,25.27,12.41,26.5,15.55-.68.84-4.09,2.46-9.89,2.92A26.36,26.36,0,0,0,104,424c-3.41,2-5.29,4.94-5.29,8.39,0,4.36,3.12,8.66,8.55,11.8a33.77,33.77,0,0,0,16.43,4.31,21.2,21.2,0,0,0,10.54-2.43,12.42,12.42,0,0,0,6.08-7.9c.52-2.17,2.87-4.73,7.78-4.79h.16c7.12,0,17.65,6.5,31,14.74,4.54,2.81,9,5.57,13.93,8.48l2,1.19,5.12-2.95c25-14.43,36.11-21.13,35.81-28.56-.21-5.21-5.89-8.65-15.57-9.42-5-.4-7.62-1.57-8.76-2.22-.84-.49-1.85-1.28-1.85-2.28,0-1.36,1.58-3.65,5.11-5.69a29,29,0,0,1,13.85-3.57,16.37,16.37,0,0,1,7.94,1.69,5.62,5.62,0,0,1,2.87,3.5c1.17,4.87,5.8,9.82,13.52,9.93h.3c10.1,0,22.09-6.94,42-18.5l4.24-2.45.05,0,1.29-.73.07,0,.07,0,.36-.21c6.31-3.6,12.3-6.73,17.12-9.25,14.88-7.77,23.07-12.06,22.81-18.44-.21-5.21-5.89-8.65-15.57-9.42-5-.4-7.62-1.57-8.76-2.22-.84-.49-1.85-1.28-1.85-2.28,0-1.36,1.58-3.65,5.11-5.69a28.94,28.94,0,0,1,13.85-3.56,16.49,16.49,0,0,1,7.94,1.68,5.58,5.58,0,0,1,2.87,3.5c1.17,4.87,5.8,9.83,13.53,9.93h.21c7.74,0,16.42-5.55,28.43-13.24,5.19-3.32,11.07-7.09,17.78-11l6.37-3.7Z" style="fill:#e0e0e0"></path><path id="freepik--shadow--inject-428" d="M299.48,267.94l5.72,3.79c16.27,10.78,29.12,19.3,38,19.3h.19c5.37-.07,8-2.95,8.55-5.4a11.67,11.67,0,0,1,5.7-7.4,20.44,20.44,0,0,1,10.14-2.32,33,33,0,0,1,16,4.2c5.18,3,8.14,7,8.14,11.1,0,3.15-1.73,5.88-4.88,7.7a25.55,25.55,0,0,1-10.65,2.84c-5.43.43-9.43,2-10.44,3.21l-.3.37.18.44c.45,1.09,2.37,3.65,10.19,8.64,6.16,3.93,14.95,8.74,28.5,15.59l5.25,2.66-5.09,2.95c-6.74,3.92-12.62,7.69-17.82,11-11.89,7.62-20.49,13.12-28,13.12h-.2c-7.29-.1-11.66-4.75-12.76-9.32a6.37,6.37,0,0,0-3.24-4,17.21,17.21,0,0,0-8.35-1.8,29.72,29.72,0,0,0-14.25,3.68c-3.35,1.93-5.51,4.44-5.51,6.38,0,1.1.78,2.12,2.25,3,1.2.7,4,1.92,9.1,2.33,9.23.74,14.63,3.89,14.83,8.65.24,5.88-7.8,10.08-22.38,17.7-4.81,2.51-10.8,5.64-17.15,9.26l-.41.24,0,0-.07,0-.93.53-.05,0-.36.2-4.25,2.46c-19.8,11.47-31.76,18.39-41.64,18.39h-.29c-7.29-.1-11.66-4.75-12.75-9.32a6.37,6.37,0,0,0-3.24-4,17.21,17.21,0,0,0-8.35-1.8A29.61,29.61,0,0,0,214.65,406c-3.35,1.93-5.51,4.43-5.51,6.38,0,1.09.78,2.12,2.25,3,1.2.69,4,1.92,9.1,2.33,9.23.74,14.63,3.89,14.83,8.65.27,7-10.66,13.57-35.42,27.83l-4.7,2.72-1.61-.95c-4.88-2.9-9.37-5.66-13.92-8.47-13.43-8.31-24-14.87-31.41-14.87h-.16c-5.37.08-8,3-8.55,5.41a11.64,11.64,0,0,1-5.7,7.39,20.41,20.41,0,0,1-10.14,2.33,33,33,0,0,1-16-4.21c-5.18-3-8.14-7-8.14-11.1,0-3.15,1.73-5.88,4.88-7.7a25.45,25.45,0,0,1,10.65-2.83c5.44-.44,9.44-2,10.44-3.22l.3-.37-.17-.43c-1.25-3.19-11.93-8.63-26.89-16-3.35-1.65-7.26-3.57-11.3-5.6l-5.27-2.66,5.11-3c4.94-2.87,9.59-5.66,13-7.72,14.25-8.57,23.67-14.22,32-14.22h.25c7.29.1,11.66,4.75,12.75,9.31a6.37,6.37,0,0,0,3.25,4,17.17,17.17,0,0,0,8.34,1.79,29.78,29.78,0,0,0,14.26-3.67c3.34-1.93,5.5-4.44,5.5-6.39,0-1.09-.77-2.12-2.25-3-1.2-.69-4-1.91-9.09-2.32-9.24-.74-14.64-3.9-14.83-8.66-.24-6.12,8.66-11.35,28.82-22.58,4.15-2.3,8.22-4.58,12.45-7l1.92-1.11c2.32-1.35,4.47-2.69,6.85-4.17l.05,0c1.57-1,3.06-1.91,4.51-2.78,3.35-2,6.52-3.91,9.5-5.63,10-5.75,17.56-9.31,24.71-9.31h.3c9,.12,13.56,5.62,14.69,10.3a5.3,5.3,0,0,0,2.68,3.36,14.44,14.44,0,0,0,6.94,1.46A26.91,26.91,0,0,0,276.76,319c3.65-2.11,4.94-4.32,4.94-5.57,0-.79-.57-1.52-1.69-2.16s-3.42-1.64-8-2c-10.15-.82-16.33-4.47-16.54-9.77-.28-6.83,10-12.56,28.76-23,3.82-2.13,8.59-4.78,13.5-7.6l1.71-1m0-.94-2.14,1.23c-4.87,2.8-9.65,5.46-13.49,7.59-19,10.55-29.47,16.36-29.17,23.69.22,5.75,6.68,9.69,17.27,10.54,4.4.35,6.67,1.34,7.63,1.89.59.34,1.29.87,1.29,1.47,0,.78-.95,2.79-4.55,4.87a25.91,25.91,0,0,1-12.43,3.24,13.55,13.55,0,0,1-6.54-1.36,4.52,4.52,0,0,1-2.3-2.85c-1.2-4.95-6-10.79-15.46-10.91h-.3c-7.34,0-15,3.6-25.12,9.41-3,1.72-6.15,3.62-9.51,5.64-1.48.89-3,1.83-4.58,2.82-2.18,1.36-4.44,2.76-6.82,4.16l-1.92,1.1c-4.21,2.42-8.28,4.7-12.44,7-20.46,11.4-29.5,16.72-29.24,23.32.21,5.21,5.89,8.64,15.57,9.42,5,.4,7.62,1.56,8.76,2.22.84.49,1.85,1.28,1.85,2.27,0,1.37-1.58,3.65-5.11,5.69A28.92,28.92,0,0,1,156.91,383a16.37,16.37,0,0,1-7.94-1.69,5.57,5.57,0,0,1-2.86-3.5c-1.17-4.86-5.81-9.82-13.53-9.93h-.25c-8.58,0-18.06,5.69-32.44,14.34-3.4,2-8,4.84-13,7.71l-6.4,3.71,6.6,3.33c3.94,2,7.74,3.85,11.3,5.6,11.86,5.82,25.27,12.41,26.5,15.55-.68.84-4.09,2.46-9.89,2.92A26.36,26.36,0,0,0,104,424c-3.41,2-5.29,4.94-5.29,8.39,0,4.36,3.12,8.66,8.55,11.8a33.77,33.77,0,0,0,16.43,4.31,21.2,21.2,0,0,0,10.54-2.43,12.42,12.42,0,0,0,6.08-7.9c.52-2.17,2.87-4.73,7.78-4.79h.16c7.12,0,17.65,6.5,31,14.74,4.54,2.81,9,5.57,13.93,8.48l2,1.19,5.12-2.95c25-14.43,36.11-21.13,35.81-28.56-.21-5.21-5.89-8.65-15.57-9.42-5-.4-7.62-1.57-8.76-2.22-.84-.49-1.85-1.28-1.85-2.28,0-1.36,1.58-3.65,5.11-5.69a29,29,0,0,1,13.85-3.57,16.37,16.37,0,0,1,7.94,1.69,5.62,5.62,0,0,1,2.87,3.5c1.17,4.87,5.8,9.82,13.52,9.93h.3c10.1,0,22.09-6.94,42-18.5l4.24-2.45.05,0,1.29-.73.07,0,.07,0,.36-.21c6.31-3.6,12.3-6.73,17.12-9.25,14.88-7.77,23.07-12.06,22.81-18.44-.21-5.21-5.89-8.65-15.57-9.42-5-.4-7.62-1.57-8.76-2.22-.84-.49-1.85-1.28-1.85-2.28,0-1.36,1.58-3.65,5.11-5.69a28.94,28.94,0,0,1,13.85-3.56,16.49,16.49,0,0,1,7.94,1.68,5.58,5.58,0,0,1,2.87,3.5c1.17,4.87,5.8,9.83,13.53,9.93h.21c7.74,0,16.42-5.55,28.43-13.24,5.19-3.32,11.07-7.09,17.78-11l6.37-3.7-6.57-3.33c-13.52-6.84-22.29-11.63-28.43-15.55-8.11-5.17-9.6-7.6-9.88-8.26.69-.84,4.1-2.46,9.88-2.92a26.48,26.48,0,0,0,11-2.94c3.41-2,5.29-4.95,5.29-8.4,0-4.36-3.12-8.66-8.54-11.8a33.84,33.84,0,0,0-16.44-4.31,21.23,21.23,0,0,0-10.54,2.43,12.45,12.45,0,0,0-6.08,7.91c-.52,2.17-2.87,4.72-7.78,4.79h-.18c-8.66,0-21.4-8.45-37.57-19.17L299.51,267Z" style="fill:#e0e0e0"></path><polygon id="freepik--shadow--inject-428" points="405.68 384.01 385.37 372.29 454.42 332.42 474.73 344.14 405.68 384.01" style="fill:#e0e0e0"></polygon><polygon id="freepik--shadow--inject-428" points="47.71 387.89 27.4 376.16 96.46 336.29 116.77 348.02 47.71 387.89" style="fill:#e0e0e0"></polygon><path id="freepik--shadow--inject-428" d="M390.91,413.68l-1.13-3.54a2,2,0,0,0-1.83-1.32l-7.19.21a3.54,3.54,0,0,1-2.33-1,20.6,20.6,0,0,0-1.74-1.58,1.24,1.24,0,0,1-.2-1.86l2.82-3.05A.91.91,0,0,0,379,400l-6.32-2.63a2.91,2.91,0,0,0-2.46.23l-4.2,2.79a3.91,3.91,0,0,1-2.53.49c-1.35-.25-2.71-.44-4.08-.56a2.87,2.87,0,0,1-2.06-1.37l-1.6-3.11a2.25,2.25,0,0,0-2-1.14l-7.85.74a1.35,1.35,0,0,0-1.21,1.54l.4,3a1.7,1.7,0,0,1-1.16,1.79,32.16,32.16,0,0,0-3.26,1.18,4.13,4.13,0,0,1-2.6.14l-6.15-2a2.77,2.77,0,0,0-2.4.45l-4,3.34a.87.87,0,0,0,.2,1.55l5.07,2.63a1.41,1.41,0,0,1,.6,1.88,10.26,10.26,0,0,0-.5,1.37,2.29,2.29,0,0,1-1.65,1.61l-6.82,1.1a1.18,1.18,0,0,0-.94,1.58l1.13,3.54a2,2,0,0,0,1.83,1.32l7.18-.21a3.58,3.58,0,0,1,2.34,1,17.91,17.91,0,0,0,1.74,1.58,1.24,1.24,0,0,1,.2,1.86L333,428.74a.91.91,0,0,0,.36,1.56l6.32,2.63a2.91,2.91,0,0,0,2.46-.23l4.2-2.79a3.91,3.91,0,0,1,2.53-.49c1.34.25,2.71.44,4.08.56a2.84,2.84,0,0,1,2.05,1.37l1.6,3.11a2.28,2.28,0,0,0,2.05,1.14l7.85-.74a1.35,1.35,0,0,0,1.21-1.54l-.4-3a1.7,1.7,0,0,1,1.15-1.79,31.49,31.49,0,0,0,3.27-1.18,4.2,4.2,0,0,1,2.6-.15l6.14,2a2.83,2.83,0,0,0,2.41-.45l4-3.34a.87.87,0,0,0-.19-1.55l-5.08-2.63a1.43,1.43,0,0,1-.6-1.88,8.4,8.4,0,0,0,.5-1.37,2.28,2.28,0,0,1,1.65-1.61l6.83-1.1A1.18,1.18,0,0,0,390.91,413.68Zm-22.34,6.6c-4.69,3.94-14,4.82-20.89,2s-8.61-8.35-3.93-12.28,14-4.82,20.89-2S373.25,416.35,368.57,420.28Z" style="fill:#e0e0e0"></path><path id="freepik--shadow--inject-428" d="M353.81,395.45h0a1.48,1.48,0,0,1,1.18.7l1.6,3.12a3.63,3.63,0,0,0,2.7,1.8,40.1,40.1,0,0,1,4,.55,3.66,3.66,0,0,0,.68.06,4.62,4.62,0,0,0,2.44-.67l4.2-2.8a2.08,2.08,0,0,1,1.06-.26,1.76,1.76,0,0,1,.65.11l6.32,2.63c.13.05.17.11.17.12a.26.26,0,0,1-.09.15L375.9,404a2,2,0,0,0-.54,1.53,2.13,2.13,0,0,0,.83,1.51,17.34,17.34,0,0,1,1.66,1.51,4.38,4.38,0,0,0,2.86,1.27h.08l7.2-.21a1.2,1.2,0,0,1,1,.76l1.14,3.54a.46.46,0,0,1,0,.37.37.37,0,0,1-.28.17L383,415.57a3.06,3.06,0,0,0-2.3,2.18,9.13,9.13,0,0,1-.46,1.26,2.23,2.23,0,0,0,1,2.93l5.08,2.63a1.27,1.27,0,0,1,.15.09h0a.37.37,0,0,1-.1.12l-4,3.34a2,2,0,0,1-1.19.37,1.53,1.53,0,0,1-.45-.06l-6.14-2a4.17,4.17,0,0,0-1.28-.18,5.05,5.05,0,0,0-1.89.35,29,29,0,0,1-3.18,1.15,2.51,2.51,0,0,0-1.72,2.66l.4,3a.55.55,0,0,1-.12.43.49.49,0,0,1-.36.2l-7.86.74h-.07a1.47,1.47,0,0,1-1.18-.71l-1.6-3.11a3.65,3.65,0,0,0-2.7-1.8c-1.36-.12-2.7-.31-4-.55a3.66,3.66,0,0,0-.68-.06,4.69,4.69,0,0,0-2.45.67L341.7,432a1.94,1.94,0,0,1-1.05.27,1.76,1.76,0,0,1-.65-.11l-6.32-2.63a.39.39,0,0,1-.18-.12.38.38,0,0,1,.1-.16l2.82-3a2,2,0,0,0,.54-1.53,2.13,2.13,0,0,0-.83-1.51,17.34,17.34,0,0,1-1.66-1.51,4.4,4.4,0,0,0-2.87-1.28h-.07l-7.21.2a1.22,1.22,0,0,1-1-.75l-1.13-3.54a.46.46,0,0,1,0-.37.41.41,0,0,1,.29-.17l6.82-1.11a3.08,3.08,0,0,0,2.3-2.18,10,10,0,0,1,.45-1.26,2.21,2.21,0,0,0-1-2.93L326,405.68a.7.7,0,0,1-.15-.09h0a.37.37,0,0,1,.1-.12l4-3.34a2,2,0,0,1,1.18-.37,1.49,1.49,0,0,1,.45.06l6.15,2A4.12,4.12,0,0,0,339,404a5.05,5.05,0,0,0,1.89-.35,28.11,28.11,0,0,1,3.17-1.15,2.49,2.49,0,0,0,1.72-2.66l-.39-3a.61.61,0,0,1,.11-.44.52.52,0,0,1,.37-.19l7.85-.74h.08m2.74,29.28c5.07,0,9.64-1.4,12.53-3.83,2.19-1.84,3.2-4.13,2.84-6.44-.45-2.92-3-5.55-7-7.2a24.07,24.07,0,0,0-9.19-1.74c-5.06,0-9.63,1.4-12.53,3.83-2.18,1.84-3.19,4.13-2.84,6.44.45,2.92,3,5.54,7,7.2a24,24,0,0,0,9.18,1.74m-2.74-30.09h-.15l-7.85.74a1.35,1.35,0,0,0-1.21,1.54l.4,3a1.7,1.7,0,0,1-1.16,1.79,32.16,32.16,0,0,0-3.26,1.18,4.26,4.26,0,0,1-1.57.29,3.24,3.24,0,0,1-1-.15l-6.15-2a2.23,2.23,0,0,0-.7-.11,2.8,2.8,0,0,0-1.7.56l-4,3.34a.87.87,0,0,0,.2,1.55l5.07,2.63a1.41,1.41,0,0,1,.6,1.88,10.26,10.26,0,0,0-.5,1.37,2.29,2.29,0,0,1-1.65,1.61l-6.82,1.1a1.18,1.18,0,0,0-.94,1.58l1.13,3.54a2,2,0,0,0,1.78,1.32h.05l7.18-.21h.05a3.62,3.62,0,0,1,2.29,1,17.91,17.91,0,0,0,1.74,1.58,1.24,1.24,0,0,1,.2,1.86L333,428.74a.91.91,0,0,0,.36,1.56l6.32,2.63a2.45,2.45,0,0,0,1,.17,2.82,2.82,0,0,0,1.5-.4l4.2-2.79a3.83,3.83,0,0,1,2-.54,2.89,2.89,0,0,1,.53.05c1.34.25,2.71.44,4.08.56a2.84,2.84,0,0,1,2.05,1.37l1.6,3.11a2.29,2.29,0,0,0,1.9,1.15h.15l7.85-.74a1.35,1.35,0,0,0,1.21-1.54l-.4-3a1.7,1.7,0,0,1,1.15-1.79,31.49,31.49,0,0,0,3.27-1.18,4,4,0,0,1,1.57-.29,3.66,3.66,0,0,1,1,.14l6.14,2a2.28,2.28,0,0,0,.7.1,2.8,2.8,0,0,0,1.71-.55l4-3.34a.87.87,0,0,0-.19-1.55l-5.08-2.63a1.43,1.43,0,0,1-.6-1.88,8.4,8.4,0,0,0,.5-1.37,2.28,2.28,0,0,1,1.65-1.61l6.83-1.1a1.18,1.18,0,0,0,.94-1.58l-1.13-3.54a2,2,0,0,0-1.79-1.32h0l-7.19.21h-.05a3.61,3.61,0,0,1-2.28-1,20.6,20.6,0,0,0-1.74-1.58,1.24,1.24,0,0,1-.2-1.86l2.82-3.05A.91.91,0,0,0,379,400l-6.32-2.63a2.49,2.49,0,0,0-1-.17,2.71,2.71,0,0,0-1.5.4l-4.2,2.79a3.85,3.85,0,0,1-2,.54,2.89,2.89,0,0,1-.53-.05c-1.35-.25-2.71-.44-4.08-.56a2.87,2.87,0,0,1-2.06-1.37l-1.6-3.11a2.27,2.27,0,0,0-1.89-1.15Zm2.74,29.28a23.36,23.36,0,0,1-8.87-1.67c-6.85-2.85-8.61-8.35-3.93-12.28,2.83-2.38,7.36-3.64,12-3.64a23.41,23.41,0,0,1,8.88,1.67c6.85,2.85,8.61,8.35,3.93,12.28-2.83,2.38-7.36,3.64-12,3.64Z" style="fill:#e0e0e0"></path><path id="freepik--shadow--inject-428" d="M323.5,446l-.9-2.82a3.61,3.61,0,0,0-3.42-2.44l-5.67.17a1.19,1.19,0,0,1-.42-.21c-.26-.27-.52-.52-.81-.78l1.53-1.65a2.72,2.72,0,0,0-1-4.45l-5-2.1a4,4,0,0,0-1.53-.29,4.12,4.12,0,0,0-2.31.66l-3.33,2.21a1.25,1.25,0,0,1-.54.1h0a33.6,33.6,0,0,0-3.37-.46l-.1,0s0,0,0,0l-1.27-2.48a3.85,3.85,0,0,0-3.29-2l-.31,0-6.26.59a3,3,0,0,0-2.11,1.14,3.11,3.11,0,0,0-.65,2.34l.25,1.84a24.06,24.06,0,0,0-2.26.85,1.6,1.6,0,0,1-.46.06H280l-4.9-1.61a3.79,3.79,0,0,0-1.18-.18,4.25,4.25,0,0,0-2.65.91L268.12,438a2.69,2.69,0,0,0,.53,4.54l3.33,1.73q-.11.27-.18.54l-5.18.83a2.94,2.94,0,0,0-2.34,3.85l.9,2.82a3.61,3.61,0,0,0,3.42,2.44l5.68-.17a1.19,1.19,0,0,1,.42.21c.25.27.52.52.8.78L274,457.26a2.72,2.72,0,0,0,1,4.45l5,2.1a4.06,4.06,0,0,0,1.54.29,4.11,4.11,0,0,0,2.3-.66l3.33-2.22a1.63,1.63,0,0,1,.55-.09h0a33.4,33.4,0,0,0,3.38.46l.09,0h0l1.28,2.48a3.84,3.84,0,0,0,3.29,2l.3,0,6.26-.59a3,3,0,0,0,2.11-1.14,3.11,3.11,0,0,0,.65-2.34l-.24-1.84c.78-.25,1.53-.54,2.25-.85a1.63,1.63,0,0,1,.47-.06h.19l4.9,1.61a3.83,3.83,0,0,0,1.18.18,4.23,4.23,0,0,0,2.65-.91l3.17-2.67a2.71,2.71,0,0,0,1-2.39,2.75,2.75,0,0,0-1.53-2.14l-3.33-1.73c.06-.18.12-.36.17-.54l5.18-.84a2.91,2.91,0,0,0,2.06-1.36A3,3,0,0,0,323.5,446Zm-21,4.35c-1.82,1.52-4.92,2.43-8.29,2.43a16.61,16.61,0,0,1-6.31-1.18c-2.27-1-3.76-2.33-4-3.7a3.14,3.14,0,0,1,1.36-2.72c1.81-1.52,4.91-2.43,8.29-2.43a16.56,16.56,0,0,1,6.3,1.18c2.28.94,3.76,2.33,4,3.7A3.13,3.13,0,0,1,302.5,450.35Z" style="fill:#e0e0e0"></path><path id="freepik--shadow--inject-428" d="M292,430.24a3,3,0,0,1,2.57,1.56l1.28,2.48.72-.34V434l-.3.65.1,0h.05l.09,0h.09c1.06.09,2.2.25,3.3.45l.08,0h.08a2.09,2.09,0,0,0,.92-.2l0,0,0,0,3.33-2.22a3.41,3.41,0,0,1,1.86-.52,3.19,3.19,0,0,1,1.22.23l5,2.1a2,2,0,0,1,1.23,1.4,2,2,0,0,1-.53,1.76l-1.53,1.66-.55.6.61.54c.26.24.52.48.77.75a1.82,1.82,0,0,0,.88.43h.13l5.65-.17a2.81,2.81,0,0,1,2.66,1.88l.9,2.83a2.16,2.16,0,0,1-.21,1.81,2.13,2.13,0,0,1-1.49,1l-5.19.84-.5.08-.14.5c0,.15-.1.32-.16.48l-.23.66.62.33,3.33,1.72a1.88,1.88,0,0,1,.37,3.21L316,459.53a3.43,3.43,0,0,1-2.13.73,3.12,3.12,0,0,1-.93-.14l-4.9-1.61-.06,0h-.06a1.27,1.27,0,0,0-.32,0,2.38,2.38,0,0,0-.79.13,22.39,22.39,0,0,1-2.18.82l-.64.21.09.66.24,1.85a2.28,2.28,0,0,1-.48,1.73,2.25,2.25,0,0,1-1.55.84l-6.27.59h-.22a3.06,3.06,0,0,1-2.58-1.56l-1.28-2.48-.72.33v-.75a.9.9,0,0,1,.3.05l-.15-.06-.09,0h-.09c-1.06-.09-2.2-.25-3.29-.45l-.09,0h-.07a2.24,2.24,0,0,0-.92.19l0,0,0,0-3.32,2.21a3.37,3.37,0,0,1-1.86.52,3.21,3.21,0,0,1-1.23-.22l-5-2.1a2,2,0,0,1-1.22-1.4,1.93,1.93,0,0,1,.52-1.76l1.53-1.66.55-.6L276,455c-.26-.24-.51-.48-.77-.75a1.83,1.83,0,0,0-.87-.43h-.14l-5.65.17A2.78,2.78,0,0,1,266,452.1l-.9-2.81a2.18,2.18,0,0,1,.2-1.82,2.13,2.13,0,0,1,1.5-1l5.18-.84.51-.08.14-.5c0-.15.09-.32.15-.48l.24-.66-.63-.33L269,441.87a2,2,0,0,1-1.1-1.51,1.91,1.91,0,0,1,.72-1.7l3.17-2.66a3.43,3.43,0,0,1,2.13-.73,3.12,3.12,0,0,1,.93.14l4.9,1.61.06,0h.06a3,3,0,0,0,.33,0,2.06,2.06,0,0,0,.78-.13c.69-.29,1.43-.57,2.18-.82l.64-.2-.09-.66-.24-1.85a2.28,2.28,0,0,1,.48-1.73,2.22,2.22,0,0,1,1.56-.84l6.26-.59H292m2.19,23.34c3.56,0,6.85-1,8.8-2.62a3.75,3.75,0,0,0,1.63-3.45c-.25-1.68-1.88-3.25-4.45-4.32a17.41,17.41,0,0,0-6.61-1.24c-3.56,0-6.86,1-8.81,2.62a3.77,3.77,0,0,0-1.63,3.45c.26,1.68,1.88,3.25,4.45,4.32a17.42,17.42,0,0,0,6.62,1.24M292,429.43l-.31,0-6.26.59a3,3,0,0,0-2.11,1.14,3.11,3.11,0,0,0-.65,2.34l.25,1.84a24.06,24.06,0,0,0-2.26.85,1.6,1.6,0,0,1-.46.06H280l-4.9-1.61a3.79,3.79,0,0,0-1.18-.18,4.25,4.25,0,0,0-2.65.91L268.12,438a2.69,2.69,0,0,0,.53,4.54l3.33,1.73q-.11.27-.18.54l-5.18.83a2.94,2.94,0,0,0-2.34,3.85l.9,2.82a3.61,3.61,0,0,0,3.42,2.44l5.68-.17a1.19,1.19,0,0,1,.42.21c.25.26.52.52.8.78L274,457.26a2.72,2.72,0,0,0,1,4.45l5,2.1a4.06,4.06,0,0,0,1.54.29,4.11,4.11,0,0,0,2.3-.66l3.33-2.22a1.63,1.63,0,0,1,.55-.09h0a33.4,33.4,0,0,0,3.38.46l.09,0h0l1.28,2.48a3.83,3.83,0,0,0,3.29,2h.3l6.26-.59a3,3,0,0,0,2.11-1.14,3.11,3.11,0,0,0,.65-2.34l-.24-1.84c.78-.25,1.53-.54,2.25-.85a1.63,1.63,0,0,1,.47-.06h.19l4.9,1.61a3.83,3.83,0,0,0,1.18.18,4.23,4.23,0,0,0,2.65-.91l3.17-2.67a2.71,2.71,0,0,0,1-2.39,2.75,2.75,0,0,0-1.53-2.14l-3.33-1.73c.06-.18.12-.36.17-.54l5.18-.84a2.91,2.91,0,0,0,2.06-1.36,3,3,0,0,0,.28-2.48l-.9-2.82a3.61,3.61,0,0,0-3.42-2.44l-5.67.17a1.19,1.19,0,0,1-.42-.21c-.26-.27-.52-.52-.8-.78l1.52-1.65a2.72,2.72,0,0,0-1-4.45l-5-2.1a4,4,0,0,0-1.53-.29,4.12,4.12,0,0,0-2.31.66l-3.33,2.21a1.25,1.25,0,0,1-.54.1h0a33.6,33.6,0,0,0-3.37-.46l-.1,0s0,0,0,0l-1.27-2.48a3.85,3.85,0,0,0-3.29-2Zm2.19,23.35a16.61,16.61,0,0,1-6.31-1.18c-2.27-1-3.76-2.33-4-3.7a3.14,3.14,0,0,1,1.36-2.72c1.81-1.52,4.91-2.43,8.29-2.43a16.56,16.56,0,0,1,6.3,1.18c2.28.94,3.76,2.33,4,3.7a3.13,3.13,0,0,1-1.35,2.72c-1.82,1.52-4.92,2.43-8.29,2.43Z" style="fill:#e0e0e0"></path></g><g id="freepik--Gears--inject-428"><g id="freepik--gears--inject-428"><g id="freepik--Gear--inject-428"><path d="M324.56,404h0a1,1,0,0,0,.58.82l2.18,1.13,1.27-.21a2.26,2.26,0,0,0,1.65-1.6,9.56,9.56,0,0,1,.5-1.38,1.42,1.42,0,0,0-.61-1.88l-5.07-2.63a.94.94,0,0,1-.58-.8Zm18.61-2.18c-2.95,2.48-3.36,5.58-1.52,8.25a9.16,9.16,0,0,1,1.59-1.69c4.68-3.94,14-4.81,20.89-2a12.1,12.1,0,0,1,5.42,4c2.53-3.69.41-8.11-5.5-10.57C357.2,397,347.85,397.84,343.17,401.78Zm-22.34,12.77h0a1.14,1.14,0,0,0,.06.4l1.13,3.54a2,2,0,0,0,1.83,1.32l7.19-.21a2.93,2.93,0,0,1,1.11.24h0a3.55,3.55,0,0,1,.61.32l2.46-2.65a1.25,1.25,0,0,0-.2-1.87,17.76,17.76,0,0,1-1.73-1.58,3.78,3.78,0,0,0-1.22-.79A3,3,0,0,0,331,413l-7.19.22a2,2,0,0,1-1.83-1.32l-1.13-3.55a1.8,1.8,0,0,1-.07-.38ZM379,392.76a1.07,1.07,0,0,1-.29.57l-2.82,3a1.22,1.22,0,0,0,.2,1.86,17.73,17.73,0,0,1,1.73,1.59,2.88,2.88,0,0,0,.6.46l.36-.39a1,1,0,0,0,.3-.71h0ZM332.2,427.83a.77.77,0,0,0,.11.39,1.11,1.11,0,0,0,.55.46l6.32,2.63a1.43,1.43,0,0,0,.27.09l.21,0a3.43,3.43,0,0,0,1,0l.21-.05h0a2.23,2.23,0,0,0,.81-.3l4.2-2.8a3.9,3.9,0,0,1,2.53-.48c1.35.25,2.71.43,4.08.56a2.71,2.71,0,0,1,1.38.59,1.88,1.88,0,0,1,.35.34.65.65,0,0,1,.15.18.9.9,0,0,1,.17.26l1.61,3.11,0,.07a1.31,1.31,0,0,0,.17.24,1.54,1.54,0,0,0,.17.19l0,0,.24.19a2.44,2.44,0,0,0,.52.29,2.11,2.11,0,0,0,.88.14l7.85-.75a1.33,1.33,0,0,0,1.22-1.33l-.06-4.46a1.7,1.7,0,0,1,.81-.56,31.3,31.3,0,0,0,3.26-1.18,4.2,4.2,0,0,1,2.6-.15l.07,0,6.08,2a1.14,1.14,0,0,0,.33.08h.05a1.09,1.09,0,0,0,.36,0,2.69,2.69,0,0,0,1.67-.54l4-3.35a1,1,0,0,0,.39-.71l-.08-6.54a1,1,0,0,1-.39.69l-4,3.34a2.17,2.17,0,0,1-.87.44,2.88,2.88,0,0,1-1.54,0l-6.07-2-.06,0a4.24,4.24,0,0,0-2.61.14,31.3,31.3,0,0,1-3.26,1.18,1.7,1.7,0,0,0-1.16,1.79l.4,3a1.34,1.34,0,0,1-1.2,1.54l-7.85.74a2,2,0,0,1-.89-.13,2.29,2.29,0,0,1-1.16-1l-1.61-3.12a2.24,2.24,0,0,0-.67-.78,2.74,2.74,0,0,0-1.38-.58c-1.36-.13-2.73-.32-4.07-.56a3.86,3.86,0,0,0-2.54.48l-4.19,2.8a2.23,2.23,0,0,1-.82.32,2.86,2.86,0,0,1-1.65-.1l-6.32-2.62a1,1,0,0,1-.66-.86Zm50.36-19.66a2.29,2.29,0,0,0-1.65,1.61,9,9,0,0,1-.5,1.37A1.41,1.41,0,0,0,381,413l2.9,1.51,5.56-.9a1.17,1.17,0,0,0,1-1.14h0l-.08-6.58a1.14,1.14,0,0,1-1,1.14Z" style="fill:#f5f5f5"></path><path d="M373.82,419l6.07,2a2.88,2.88,0,0,0,1.54,0l.08,6.55a3.6,3.6,0,0,1-.79.12,1.09,1.09,0,0,1-.36,0h-.05a1.14,1.14,0,0,1-.33-.08l-6.08-2Z" style="fill:#ebebeb"></path><path d="M353.75,422.38a2.24,2.24,0,0,1,.67.78l1.61,3.12a2.29,2.29,0,0,0,1.16,1l.08,6.56a2.44,2.44,0,0,1-.52-.29l-.24-.19,0,0a1.54,1.54,0,0,1-.17-.19,1.31,1.31,0,0,1-.17-.24l0-.07-1.61-3.11a.9.9,0,0,0-.17-.26,1.3,1.3,0,0,0-.15-.18,2.66,2.66,0,0,0-.35-.32v0Z" style="fill:#ebebeb"></path><path d="M324.47,397.42a1,1,0,0,0,.59.79l5.08,2.63a1.42,1.42,0,0,1,.6,1.88,8.17,8.17,0,0,0-.5,1.38,2.26,2.26,0,0,1-1.66,1.6l-1.26.2-2.18-1.12a1,1,0,0,1-.58-.82h0Z" style="fill:#ebebeb"></path><path d="M320.75,408a1.8,1.8,0,0,0,.07.38l1.13,3.55a2,2,0,0,0,1.83,1.32L331,413a3,3,0,0,1,1.12.24l.07,6.57a2.93,2.93,0,0,0-1.11-.24l-7.19.21a2,2,0,0,1-1.83-1.32L320.9,415a1.14,1.14,0,0,1-.06-.4h0Z" style="fill:#ebebeb"></path><path d="M332.12,421.26a1,1,0,0,0,.66.86l6.32,2.62a2.86,2.86,0,0,0,1.65.1l.08,6.55-.21.05a3.43,3.43,0,0,1-1,0l-.21,0a1.43,1.43,0,0,1-.27-.09l-6.32-2.63a1.11,1.11,0,0,1-.55-.46.77.77,0,0,1-.11-.39Z" style="fill:#ebebeb"></path><path d="M328.84,393.32l-4,3.35a.86.86,0,0,0,.19,1.54l5.08,2.63a1.43,1.43,0,0,1,.6,1.88,8.5,8.5,0,0,0-.5,1.38,2.28,2.28,0,0,1-1.65,1.6l-6.83,1.11a1.18,1.18,0,0,0-.94,1.58l1.13,3.53a2,2,0,0,0,1.83,1.32L331,413a3.59,3.59,0,0,1,2.33,1,19,19,0,0,0,1.74,1.58,1.25,1.25,0,0,1,.2,1.87l-2.82,3a.92.92,0,0,0,.36,1.57l6.32,2.62a2.94,2.94,0,0,0,2.46-.22l4.2-2.8a3.91,3.91,0,0,1,2.53-.49,40,40,0,0,0,4.08.56,2.87,2.87,0,0,1,2.06,1.37l1.6,3.11a2.21,2.21,0,0,0,2,1.14l7.85-.74a1.35,1.35,0,0,0,1.21-1.54l-.4-3a1.68,1.68,0,0,1,1.16-1.78,32.19,32.19,0,0,0,3.26-1.19,4.21,4.21,0,0,1,2.6-.14l6.15,2a2.77,2.77,0,0,0,2.4-.45l4-3.34a.87.87,0,0,0-.2-1.55L381,413a1.42,1.42,0,0,1-.6-1.89,10.26,10.26,0,0,0,.5-1.37,2.29,2.29,0,0,1,1.65-1.61l6.82-1.1a1.18,1.18,0,0,0,.94-1.58L389.19,402a2,2,0,0,0-1.83-1.32l-7.18.21a3.58,3.58,0,0,1-2.34-1,16.64,16.64,0,0,0-1.74-1.57,1.25,1.25,0,0,1-.2-1.87l2.82-3.05a.91.91,0,0,0-.36-1.56L372,389.13a2.91,2.91,0,0,0-2.46.23l-4.2,2.8a3.9,3.9,0,0,1-2.53.48c-1.34-.25-2.71-.44-4.08-.56a2.84,2.84,0,0,1-2-1.37l-1.6-3.11a2.27,2.27,0,0,0-2.05-1.14l-7.85.74a1.35,1.35,0,0,0-1.21,1.54l.4,3a1.69,1.69,0,0,1-1.15,1.79,29.36,29.36,0,0,0-3.27,1.19,4.28,4.28,0,0,1-2.6.14l-6.14-2A2.83,2.83,0,0,0,328.84,393.32Zm35.21,6.49c6.86,2.85,8.61,8.35,3.93,12.29s-14,4.81-20.89,2-8.61-8.35-3.92-12.28S357.2,397,364.05,399.81Z" style="fill:#fafafa"></path><path d="M353.22,387.26h0a1.47,1.47,0,0,1,1.18.71l1.6,3.11a3.65,3.65,0,0,0,2.7,1.8c1.36.12,2.7.31,4,.55a3.69,3.69,0,0,0,.69.06,4.65,4.65,0,0,0,2.44-.66L370,390a1.94,1.94,0,0,1,1.05-.27,1.76,1.76,0,0,1,.65.11l6.32,2.63c.13.05.17.11.17.12s0,.07-.09.16l-2.82,3a2,2,0,0,0-.54,1.53,2.11,2.11,0,0,0,.83,1.51,17.34,17.34,0,0,1,1.66,1.51,4.4,4.4,0,0,0,2.87,1.28h.07l7.21-.21a1.21,1.21,0,0,1,1,.76l1.13,3.53a.49.49,0,0,1,0,.38.45.45,0,0,1-.29.17l-6.82,1.1a3.09,3.09,0,0,0-2.3,2.18,8.62,8.62,0,0,1-.45,1.26,2.21,2.21,0,0,0,1,2.93l5.08,2.63.14.09h0s0,0-.1.12l-4,3.34a1.91,1.91,0,0,1-1.18.37,1.49,1.49,0,0,1-.45-.06l-6.14-2a4.23,4.23,0,0,0-1.29-.18,5,5,0,0,0-1.88.35,30.59,30.59,0,0,1-3.19,1.16,2.48,2.48,0,0,0-1.71,2.66l.39,3a.61.61,0,0,1-.11.44.52.52,0,0,1-.37.19l-7.85.74h-.08a1.49,1.49,0,0,1-1.18-.71l-1.6-3.11a3.64,3.64,0,0,0-2.7-1.81,40.1,40.1,0,0,1-4-.55,3.66,3.66,0,0,0-.68-.06,4.62,4.62,0,0,0-2.44.67l-4.2,2.8a2.08,2.08,0,0,1-1.06.26,1.76,1.76,0,0,1-.65-.11l-6.32-2.63c-.13-.05-.17-.11-.17-.12a.26.26,0,0,1,.09-.15l2.82-3.05a2,2,0,0,0,.54-1.52,2.13,2.13,0,0,0-.83-1.52,17.26,17.26,0,0,1-1.66-1.5,4.37,4.37,0,0,0-2.86-1.28h-.08l-7.2.21a1.18,1.18,0,0,1-1-.76l-1.14-3.54a.46.46,0,0,1,0-.37.37.37,0,0,1,.28-.17l6.82-1.11a3.06,3.06,0,0,0,2.3-2.18,9.13,9.13,0,0,1,.46-1.26,2.23,2.23,0,0,0-1-2.93l-5.08-2.62-.15-.1h0s0-.06.1-.13l4-3.34a2,2,0,0,1,1.19-.37,1.53,1.53,0,0,1,.45.06l6.14,2a4.17,4.17,0,0,0,1.28.18,4.86,4.86,0,0,0,1.89-.35,31.25,31.25,0,0,1,3.18-1.15,2.51,2.51,0,0,0,1.72-2.66l-.4-3a.56.56,0,0,1,.12-.44.49.49,0,0,1,.36-.2l7.86-.74h.07M356,416.54c5.07,0,9.63-1.4,12.53-3.83,2.18-1.83,3.19-4.12,2.84-6.44-.45-2.92-3-5.54-7-7.2a24.2,24.2,0,0,0-9.18-1.73c-5.07,0-9.64,1.39-12.53,3.82-2.19,1.84-3.2,4.13-2.84,6.45.45,2.91,3,5.54,7,7.19a24.07,24.07,0,0,0,9.19,1.74m-2.75-30.09h-.15l-7.85.74a1.35,1.35,0,0,0-1.21,1.54l.4,3a1.69,1.69,0,0,1-1.15,1.79,29.36,29.36,0,0,0-3.27,1.19,4.23,4.23,0,0,1-1.57.28,3.66,3.66,0,0,1-1-.14l-6.14-2a2.24,2.24,0,0,0-.7-.1,2.8,2.8,0,0,0-1.71.55l-4,3.35a.86.86,0,0,0,.19,1.54l5.08,2.63a1.43,1.43,0,0,1,.6,1.88,8.5,8.5,0,0,0-.5,1.38,2.28,2.28,0,0,1-1.65,1.6l-6.83,1.11a1.18,1.18,0,0,0-.94,1.58l1.13,3.53a2,2,0,0,0,1.79,1.32h0L331,413h0a3.61,3.61,0,0,1,2.28,1,19,19,0,0,0,1.74,1.58,1.25,1.25,0,0,1,.2,1.87l-2.82,3a.92.92,0,0,0,.36,1.57l6.32,2.62a2.49,2.49,0,0,0,1,.18,2.8,2.8,0,0,0,1.5-.4l4.2-2.8a3.85,3.85,0,0,1,2-.53,2.93,2.93,0,0,1,.53,0,40,40,0,0,0,4.08.56,2.87,2.87,0,0,1,2.06,1.37l1.6,3.11a2.27,2.27,0,0,0,1.89,1.15h.15l7.85-.74a1.35,1.35,0,0,0,1.21-1.54l-.4-3a1.68,1.68,0,0,1,1.16-1.78,32.19,32.19,0,0,0,3.26-1.19,4.27,4.27,0,0,1,1.57-.28,3.25,3.25,0,0,1,1,.14l6.15,2a2.23,2.23,0,0,0,.7.11,2.8,2.8,0,0,0,1.7-.56l4-3.34a.87.87,0,0,0-.2-1.55L381,413a1.42,1.42,0,0,1-.6-1.89,10.26,10.26,0,0,0,.5-1.37,2.29,2.29,0,0,1,1.65-1.61l6.82-1.1a1.18,1.18,0,0,0,.94-1.58L389.19,402a2,2,0,0,0-1.78-1.32h-.05l-7.18.21h-.05a3.56,3.56,0,0,1-2.29-1,16.64,16.64,0,0,0-1.74-1.57,1.25,1.25,0,0,1-.2-1.87l2.82-3.05a.91.91,0,0,0-.36-1.56L372,389.13a2.45,2.45,0,0,0-1-.17,2.82,2.82,0,0,0-1.5.4l-4.2,2.8a3.91,3.91,0,0,1-2,.53,3,3,0,0,1-.54-.05c-1.34-.25-2.71-.44-4.08-.56a2.84,2.84,0,0,1-2-1.37l-1.6-3.11a2.29,2.29,0,0,0-1.9-1.15ZM356,415.74a23.42,23.42,0,0,1-8.88-1.68c-6.85-2.85-8.61-8.35-3.92-12.28,2.82-2.38,7.35-3.64,12-3.64a23.36,23.36,0,0,1,8.87,1.67c6.86,2.85,8.61,8.35,3.93,12.29-2.83,2.37-7.36,3.64-12,3.64Z" style="fill:#ebebeb"></path></g><g id="freepik--gear--inject-428"><path d="M269.16,440.54h0a.76.76,0,0,0,.46.66l1.73.9,1-.17a1.78,1.78,0,0,0,1.31-1.27,9.73,9.73,0,0,1,.4-1.1,1.13,1.13,0,0,0-.48-1.5l-4.05-2.1a.75.75,0,0,1-.46-.63ZM284,438.8c-2.35,2-2.67,4.45-1.21,6.57a7.46,7.46,0,0,1,1.27-1.34c3.73-3.14,11.19-3.83,16.66-1.57a9.59,9.59,0,0,1,4.31,3.2c2-2.94.33-6.47-4.38-8.43C295.19,435,287.73,435.66,284,438.8ZM266.19,449h0a.93.93,0,0,0,.05.32l.9,2.82a1.57,1.57,0,0,0,1.45,1.05l5.74-.16a2.11,2.11,0,0,1,.89.18h0a2.82,2.82,0,0,1,.49.25l2-2.11a1,1,0,0,0-.15-1.49,14.32,14.32,0,0,1-1.39-1.26,3,3,0,0,0-1-.63,2.3,2.3,0,0,0-.89-.19l-5.74.17a1.61,1.61,0,0,1-1.46-1.05l-.89-2.83a.8.8,0,0,1-.06-.3Zm46.39-17.37a.78.78,0,0,1-.23.45l-2.25,2.43a1,1,0,0,0,.16,1.48,14.2,14.2,0,0,1,1.39,1.26,2,2,0,0,0,.47.37l.29-.31a.82.82,0,0,0,.24-.57h0Zm-37.32,28a.68.68,0,0,0,.08.31.85.85,0,0,0,.44.36l5,2.1.22.07.17,0a2.77,2.77,0,0,0,.76,0l.17,0h0a1.74,1.74,0,0,0,.64-.24l3.35-2.23a3.16,3.16,0,0,1,2-.39,32.14,32.14,0,0,0,3.25.45,2.14,2.14,0,0,1,1.1.47,1.44,1.44,0,0,1,.28.27.75.75,0,0,1,.12.14,1.28,1.28,0,0,1,.14.21l1.28,2.48,0,.06a1.27,1.27,0,0,0,.13.19l.14.15,0,0,.19.15a2.13,2.13,0,0,0,.42.23,1.69,1.69,0,0,0,.7.11l6.26-.59a1.07,1.07,0,0,0,1-1.07l-.05-3.55a1.35,1.35,0,0,1,.65-.45,26.66,26.66,0,0,0,2.6-.94,3.33,3.33,0,0,1,2.07-.12l.05,0,4.85,1.59a1.1,1.1,0,0,0,.26.06h0a1,1,0,0,0,.29,0,2.08,2.08,0,0,0,1.33-.43l3.16-2.67a.86.86,0,0,0,.32-.57l-.07-5.21a.77.77,0,0,1-.31.55l-3.17,2.66a1.71,1.71,0,0,1-.7.35,2.21,2.21,0,0,1-1.22,0l-4.84-1.59-.05,0a3.37,3.37,0,0,0-2.08.11,21,21,0,0,1-2.6.94,1.35,1.35,0,0,0-.92,1.43l.32,2.42a1.09,1.09,0,0,1-1,1.23l-6.26.59a1.79,1.79,0,0,1-.71-.11,1.81,1.81,0,0,1-.92-.8L293,455.85a1.65,1.65,0,0,0-.53-.62,2.14,2.14,0,0,0-1.1-.47c-1.09-.1-2.18-.25-3.25-.45a3.09,3.09,0,0,0-2,.39l-3.34,2.23a1.85,1.85,0,0,1-.66.25,2.31,2.31,0,0,1-1.31-.07l-5-2.1a.76.76,0,0,1-.53-.68Zm40.15-15.68a1.85,1.85,0,0,0-1.32,1.29,6.85,6.85,0,0,1-.4,1.09,1.14,1.14,0,0,0,.48,1.5l2.31,1.2,4.43-.72a.91.91,0,0,0,.79-.9h0l-.06-5.25a.91.91,0,0,1-.8.91Z" style="fill:#f5f5f5"></path><path d="M308.44,452.54l4.84,1.59a2.21,2.21,0,0,0,1.22,0l.07,5.22a2.3,2.3,0,0,1-.63.1,1,1,0,0,1-.29,0h0a1.1,1.1,0,0,1-.26-.06l-4.85-1.59Z" style="fill:#ebebeb"></path><path d="M292.44,455.23a1.65,1.65,0,0,1,.53.62l1.29,2.48a1.81,1.81,0,0,0,.92.8l.07,5.23a2.13,2.13,0,0,1-.42-.23l-.19-.15,0,0-.14-.15a1.27,1.27,0,0,1-.13-.19l0-.06L293,461.08a1.28,1.28,0,0,0-.14-.21l-.12-.14a3.58,3.58,0,0,0-.28-.26h0Z" style="fill:#ebebeb"></path><path d="M269.1,435.32a.74.74,0,0,0,.46.63l4.05,2.1a1.14,1.14,0,0,1,.48,1.5,8.11,8.11,0,0,0-.4,1.1,1.82,1.82,0,0,1-1.32,1.28l-1,.16-1.74-.9a.74.74,0,0,1-.46-.65h0Z" style="fill:#ebebeb"></path><path d="M266.13,443.76a.8.8,0,0,0,.06.3l.89,2.83a1.61,1.61,0,0,0,1.46,1.05l5.74-.17a2.3,2.3,0,0,1,.89.19l.06,5.23a2.11,2.11,0,0,0-.89-.18l-5.74.16a1.57,1.57,0,0,1-1.45-1.05l-.9-2.82a.93.93,0,0,1-.05-.32h0Z" style="fill:#ebebeb"></path><path d="M275.19,454.33a.76.76,0,0,0,.53.68l5,2.1a2.31,2.31,0,0,0,1.31.07l.07,5.23-.17,0a2.77,2.77,0,0,1-.76,0l-.17,0-.22-.07-5-2.1a.85.85,0,0,1-.44-.36.68.68,0,0,1-.08-.31Z" style="fill:#ebebeb"></path><path d="M272.58,432.06l-3.17,2.66a.69.69,0,0,0,.15,1.23l4.05,2.1a1.13,1.13,0,0,1,.48,1.5,7.65,7.65,0,0,0-.4,1.1,1.79,1.79,0,0,1-1.31,1.27l-5.44.89a.94.94,0,0,0-.76,1.26l.91,2.82a1.6,1.6,0,0,0,1.46,1.05l5.72-.17a2.86,2.86,0,0,1,1.87.82,15.43,15.43,0,0,0,1.38,1.26,1,1,0,0,1,.16,1.49l-2.25,2.42a.74.74,0,0,0,.29,1.25l5,2.1a2.32,2.32,0,0,0,2-.18l3.35-2.23a3.09,3.09,0,0,1,2-.39,32.12,32.12,0,0,0,3.25.44,2.28,2.28,0,0,1,1.64,1.1l1.27,2.48a1.82,1.82,0,0,0,1.63.91l6.26-.59a1.08,1.08,0,0,0,1-1.23l-.32-2.42a1.33,1.33,0,0,1,.92-1.42,25.77,25.77,0,0,0,2.6-.95,3.37,3.37,0,0,1,2.08-.11l4.89,1.61a2.23,2.23,0,0,0,1.92-.37l3.17-2.66a.69.69,0,0,0-.15-1.23l-4.05-2.1a1.13,1.13,0,0,1-.48-1.5,6.85,6.85,0,0,0,.4-1.09,1.82,1.82,0,0,1,1.32-1.28l5.44-.88a1,1,0,0,0,.75-1.26l-.9-2.82a1.58,1.58,0,0,0-1.46-1.05l-5.73.16a2.86,2.86,0,0,1-1.87-.82,14.17,14.17,0,0,0-1.38-1.26,1,1,0,0,1-.16-1.49l2.25-2.42a.73.73,0,0,0-.29-1.25l-5-2.1a2.36,2.36,0,0,0-2,.19l-3.35,2.23a3.08,3.08,0,0,1-2,.38,32.12,32.12,0,0,0-3.25-.44,2.26,2.26,0,0,1-1.63-1.1l-1.28-2.48a1.81,1.81,0,0,0-1.63-.9l-6.26.59a1.07,1.07,0,0,0-1,1.22l.31,2.42a1.35,1.35,0,0,1-.92,1.43,23.51,23.51,0,0,0-2.6.94,3.33,3.33,0,0,1-2.07.11l-4.9-1.6A2.19,2.19,0,0,0,272.58,432.06Zm28.07,5.17c5.47,2.27,6.87,6.66,3.13,9.79s-11.19,3.84-16.65,1.57-6.86-6.65-3.13-9.79S295.19,435,300.65,437.23Z" style="fill:#fafafa"></path><path d="M292,427.38h0a1.06,1.06,0,0,1,.79.48l1.28,2.48a3.09,3.09,0,0,0,2.28,1.53,31.85,31.85,0,0,1,3.17.43,2.72,2.72,0,0,0,.58.05,3.92,3.92,0,0,0,2-.55l3.35-2.23a1.36,1.36,0,0,1,.75-.19,1.17,1.17,0,0,1,.45.08l5,2.08-2.22,2.4a1.81,1.81,0,0,0-.48,1.34,1.87,1.87,0,0,0,.73,1.32,15.08,15.08,0,0,1,1.31,1.19,3.65,3.65,0,0,0,2.4,1.07h.06l5.74-.17a.79.79,0,0,1,.66.49l.9,2.82a.21.21,0,0,1,0,.16.13.13,0,0,1-.11.06l-5.44.88a2.64,2.64,0,0,0-2,1.86,8.87,8.87,0,0,1-.36,1,1.93,1.93,0,0,0,.84,2.55l4,2.06-3.1,2.6a1.4,1.4,0,0,1-.84.25.88.88,0,0,1-.3,0l-4.9-1.61a3.57,3.57,0,0,0-1.08-.15,4.21,4.21,0,0,0-1.56.29,25.75,25.75,0,0,1-2.52.92,2.16,2.16,0,0,0-1.49,2.3l.32,2.41a.3.3,0,0,1-.06.23.26.26,0,0,1-.18.1l-6.3.59a1,1,0,0,1-.8-.48l-1.28-2.48a3.09,3.09,0,0,0-2.28-1.53c-1.07-.09-2.14-.24-3.17-.43a2.67,2.67,0,0,0-.58,0,3.84,3.84,0,0,0-2,.56l-3.34,2.23a1.51,1.51,0,0,1-.75.18,1.44,1.44,0,0,1-.46-.07l-5-2.09,2.22-2.4a1.72,1.72,0,0,0,.48-1.34,1.89,1.89,0,0,0-.72-1.32,12.63,12.63,0,0,1-1.31-1.19,3.73,3.73,0,0,0-2.4-1.06h-.07l-5.74.16a.79.79,0,0,1-.66-.49l-.9-2.82a.22.22,0,0,1,0-.16.2.2,0,0,1,.11-.06l5.44-.88a2.62,2.62,0,0,0,2-1.86,7.16,7.16,0,0,1,.35-1,1.93,1.93,0,0,0-.84-2.55l-4-2.06,3.1-2.6a1.42,1.42,0,0,1,.84-.25,1,1,0,0,1,.31,0l4.89,1.61a3.57,3.57,0,0,0,1.08.15,4.07,4.07,0,0,0,1.57-.29,24.84,24.84,0,0,1,2.52-.92,2.16,2.16,0,0,0,1.48-2.29l-.32-2.42a.32.32,0,0,1,.06-.23.22.22,0,0,1,.18-.09l6.26-.59h0m2.19,23.35c4.07,0,7.75-1.13,10.09-3.09a5.75,5.75,0,0,0,2.32-5.29c-.37-2.38-2.43-4.52-5.66-5.86a19.44,19.44,0,0,0-7.38-1.4c-4.08,0-7.76,1.13-10.1,3.09a5.75,5.75,0,0,0-2.32,5.29c.37,2.38,2.43,4.52,5.66,5.86a19.3,19.3,0,0,0,7.39,1.4M292,426.58h-.12l-6.26.59a1.07,1.07,0,0,0-1,1.22l.31,2.42a1.35,1.35,0,0,1-.92,1.43,23.51,23.51,0,0,0-2.6.94,3.24,3.24,0,0,1-1.25.23,2.57,2.57,0,0,1-.82-.12l-4.9-1.6a1.69,1.69,0,0,0-.56-.09,2.24,2.24,0,0,0-1.36.45l-3.17,2.66a.69.69,0,0,0,.15,1.23l4.05,2.1a1.13,1.13,0,0,1,.48,1.5,7.65,7.65,0,0,0-.4,1.1,1.79,1.79,0,0,1-1.31,1.27l-5.44.89a.94.94,0,0,0-.76,1.26l.91,2.82a1.59,1.59,0,0,0,1.42,1.05h0l5.72-.17h.05a2.88,2.88,0,0,1,1.82.82,15.43,15.43,0,0,0,1.38,1.26,1,1,0,0,1,.16,1.49l-2.25,2.42a.74.74,0,0,0,.29,1.25l5,2.1a2.07,2.07,0,0,0,.77.13,2.29,2.29,0,0,0,1.19-.31l3.35-2.23a3.07,3.07,0,0,1,1.59-.43,2,2,0,0,1,.43,0,32.12,32.12,0,0,0,3.25.44,2.28,2.28,0,0,1,1.64,1.1l1.27,2.48a1.83,1.83,0,0,0,1.52.91h.11l6.26-.59a1.08,1.08,0,0,0,1-1.23l-.32-2.42a1.33,1.33,0,0,1,.92-1.42,25.77,25.77,0,0,0,2.6-.95,3.48,3.48,0,0,1,1.25-.23,2.68,2.68,0,0,1,.83.12l4.89,1.61a2,2,0,0,0,.56.08,2.22,2.22,0,0,0,1.36-.45l3.17-2.66a.69.69,0,0,0-.15-1.23l-4.05-2.1a1.13,1.13,0,0,1-.48-1.5,6.85,6.85,0,0,0,.4-1.09,1.82,1.82,0,0,1,1.32-1.28l5.44-.88a1,1,0,0,0,.75-1.26l-.9-2.82a1.58,1.58,0,0,0-1.43-1.05h0l-5.73.16h0a2.91,2.91,0,0,1-1.83-.82,14.17,14.17,0,0,0-1.38-1.26,1,1,0,0,1-.16-1.49l2.25-2.42a.73.73,0,0,0-.29-1.25l-5-2.1a2.06,2.06,0,0,0-.76-.13,2.22,2.22,0,0,0-1.2.32l-3.35,2.23a3.16,3.16,0,0,1-1.59.42,2,2,0,0,1-.43,0,32.12,32.12,0,0,0-3.25-.44,2.26,2.26,0,0,1-1.63-1.1l-1.28-2.48a1.82,1.82,0,0,0-1.51-.91Zm2.19,23.34a18.65,18.65,0,0,1-7.08-1.33c-5.46-2.27-6.86-6.65-3.13-9.79,2.25-1.9,5.87-2.9,9.58-2.9a18.64,18.64,0,0,1,7.07,1.33c5.47,2.27,6.87,6.66,3.13,9.79-2.25,1.9-5.86,2.9-9.57,2.9Z" style="fill:#ebebeb"></path></g></g></g><g id="freepik--Chart--inject-428"><g id="freepik--bar-graph--inject-428"><path d="M21.62,270.61l1.28.74a2.5,2.5,0,0,0,2.26,0l77.44-44.71a2.52,2.52,0,0,0,1.14-2V136.34a2.5,2.5,0,0,0-1.14-2l-1.27-.74a2.52,2.52,0,0,0-2.27,0L21.62,178.35a2.51,2.51,0,0,0-1.13,2v88.34A2.51,2.51,0,0,0,21.62,270.61Z" style="fill:#f0f0f0"></path><path d="M25.16,271.35l77.44-44.71a2.52,2.52,0,0,0,1.14-2V136.34c0-.72-.51-1-1.14-.65L25.16,180.4a2.51,2.51,0,0,0-1.13,2v88.33C24,271.41,24.54,271.71,25.16,271.35Z" style="fill:#fff"></path><path d="M24.66,271.72a.84.84,0,0,1-.41-.11,1,1,0,0,1-.44-.92V182.36a2.72,2.72,0,0,1,1.24-2.15l77.44-44.71a.9.9,0,0,1,1.46.84v88.33a2.68,2.68,0,0,1-1.24,2.15L25.27,271.53A1.17,1.17,0,0,1,24.66,271.72Zm78.45-136a.78.78,0,0,0-.4.13L25.27,180.59a2.31,2.31,0,0,0-1,1.77v88.33a.62.62,0,0,0,.22.55.61.61,0,0,0,.58-.08l77.44-44.71a2.31,2.31,0,0,0,1-1.78V136.34a.6.6,0,0,0-.22-.54A.41.41,0,0,0,103.11,135.75Z" style="fill:#e0e0e0"></path><path d="M25,271.43a2.5,2.5,0,0,1-2.09-.09l-1.28-.73a2.51,2.51,0,0,1-1.13-2V180.31a2.26,2.26,0,0,1,.33-1.11l3.54,2a2.29,2.29,0,0,0-.33,1.12v88.33C24,271.35,24.45,271.65,25,271.43Z" style="fill:#e0e0e0"></path><g id="freepik--bar-graph--inject-428"><polygon points="82.83 229.42 82.83 182.9 78.68 180.5 78.68 227.03 82.83 229.42" style="fill:#00EA8E"></polygon><polygon points="82.83 229.42 82.83 182.9 78.68 180.5 78.68 227.03 82.83 229.42" style="opacity:0.2"></polygon><polygon points="82.83 229.42 94.88 222.47 94.88 175.95 82.83 182.9 82.83 229.42" style="fill:#00EA8E"></polygon><polygon points="94.88 175.95 90.73 173.55 78.68 180.5 82.83 182.9 94.88 175.95" style="fill:#00EA8E"></polygon><polygon points="94.88 175.95 90.73 173.55 78.68 180.5 82.83 182.9 94.88 175.95" style="fill:#fff;opacity:0.25"></polygon><path d="M94.88,176l-12,6.77-4.15-2.21,4,2.65c-.1,1.36,0,44.88.16,46.26.18-1.38.26-45,.17-46.3Z" style="fill:#fff;opacity:0.30000000000000004"></path><polygon points="60.24 242.46 60.24 205.1 56.09 202.7 56.09 240.07 60.24 242.46" style="fill:#00EA8E"></polygon><polygon points="60.24 242.46 60.24 205.1 56.09 202.7 56.09 240.07 60.24 242.46" style="fill:#fff;opacity:0.1"></polygon><polygon points="60.24 242.46 72.29 235.51 72.29 198.14 60.24 205.1 60.24 242.46" style="fill:#00EA8E"></polygon><polygon points="60.24 242.46 72.29 235.51 72.29 198.14 60.24 205.1 60.24 242.46" style="fill:#fff;opacity:0.30000000000000004"></polygon><polygon points="72.29 198.14 68.14 195.75 56.09 202.7 60.24 205.1 72.29 198.14" style="fill:#00EA8E"></polygon><polygon points="72.29 198.14 68.14 195.75 56.09 202.7 60.24 205.1 72.29 198.14" style="fill:#fff;opacity:0.55"></polygon><path d="M60.4,205.19l11.89-7.05-12.05,6.78c-1.31-.74-4.15-2.22-4.15-2.22s2.65,1.7,4,2.48c0,1.41.07,35.85.16,37.28C60.33,241,60.44,206.55,60.4,205.19Z" style="fill:#fff;opacity:0.30000000000000004"></path><polygon points="37.65 255.5 37.65 224.14 33.5 221.74 33.5 253.11 37.65 255.5" style="fill:#00EA8E"></polygon><polygon points="37.65 255.5 37.65 224.14 33.5 221.74 33.5 253.11 37.65 255.5" style="opacity:0.45"></polygon><polygon points="37.65 255.5 49.7 248.55 49.7 217.19 37.65 224.14 37.65 255.5" style="fill:#00EA8E"></polygon><polygon points="37.65 255.5 49.7 248.55 49.7 217.19 37.65 224.14 37.65 255.5" style="opacity:0.30000000000000004"></polygon><polygon points="49.7 217.19 45.55 214.79 33.5 221.74 37.65 224.14 49.7 217.19" style="fill:#00EA8E"></polygon><polygon points="49.7 217.19 45.55 214.79 33.5 221.74 37.65 224.14 49.7 217.19" style="opacity:0.15"></polygon><path d="M49.7,217.19,37.65,224l-4.15-2.22,4,2.61s0,30.3.16,31.15c.18-.85.18-31.15.18-31.15Z" style="fill:#fff;opacity:0.30000000000000004"></path></g><g id="freepik--Arrow--inject-428"><polygon points="93.86 152.58 92.8 151.96 83.55 155.29 85.59 157.2 59.42 185.14 53.97 180 52.91 179.37 32.48 201.18 34.93 203.48 36 204.1 53.78 185.11 58.86 189.78 60.46 190.71 88.9 160.34 90.08 161.41 91.15 162.03 93.86 152.58" style="fill:#00EA8E"></polygon><polygon points="93.86 152.58 92.8 151.96 83.55 155.29 85.59 157.2 59.42 185.14 53.97 180 52.91 179.37 32.48 201.18 34.93 203.48 36 204.1 53.78 185.11 58.86 189.78 60.46 190.71 88.9 160.34 90.08 161.41 91.15 162.03 93.86 152.58" style="fill:#fff;opacity:0.25"></polygon><polygon points="93.86 152.58 91.15 162.03 89.11 160.12 60.46 190.71 54.13 184.74 36 204.1 33.55 201.8 53.97 180 60.3 185.96 86.65 157.82 84.61 155.91 93.86 152.58" style="fill:#00EA8E"></polygon><polygon points="54.13 184.74 53.78 185.11 58.86 189.78 60.46 190.71 54.13 184.74" style="fill:#00EA8E"></polygon><polygon points="54.13 184.74 53.78 185.11 58.86 189.78 60.46 190.71 54.13 184.74" style="opacity:0.2"></polygon><polygon points="85.59 157.2 86.65 157.82 84.61 155.91 83.55 155.29 85.59 157.2" style="fill:#00EA8E"></polygon><polygon points="85.59 157.2 86.65 157.82 84.61 155.91 83.55 155.29 85.59 157.2" style="opacity:0.2"></polygon><polygon points="88.9 160.34 89.11 160.12 91.15 162.03 90.08 161.41 88.9 160.34" style="fill:#00EA8E"></polygon><polygon points="88.9 160.34 89.11 160.12 91.15 162.03 90.08 161.41 88.9 160.34" style="opacity:0.2"></polygon><polygon points="32.48 201.18 33.55 201.8 36 204.1 34.93 203.48 32.48 201.18" style="fill:#00EA8E"></polygon><polygon points="32.48 201.18 33.55 201.8 36 204.1 34.93 203.48 32.48 201.18" style="opacity:0.2"></polygon><polygon points="40.28 194.62 53.97 180.45 60.3 185.96 53.97 180 40.28 194.62" style="fill:#fff;opacity:0.5"></polygon><polygon points="72.38 173.07 86.97 157.82 85 156 93.86 152.58 84.61 155.91 86.65 157.82 72.38 173.07" style="fill:#fff;opacity:0.5"></polygon></g></g></g><g id="freepik--Arrows--inject-428"><g id="freepik--arrow--inject-428"><polygon points="401.82 239.34 410.93 244.6 425.93 235.94 425.93 157.58 435.93 151.81 418.78 138.62 409.66 133.36 391.82 166.75 400.93 172.01 401.82 171.5 401.82 239.34" style="fill:#00EA8E"></polygon><polygon points="401.82 239.34 410.93 244.6 425.93 235.94 425.93 157.58 435.93 151.81 418.78 138.62 409.66 133.36 391.82 166.75 400.93 172.01 401.82 171.5 401.82 239.34" style="fill:#fff;opacity:0.8"></polygon><polygon id="freepik--down-arrow--inject-428" points="410.93 244.6 425.93 235.94 425.93 157.58 435.93 151.81 418.78 138.62 400.93 172.01 410.93 166.24 410.93 244.6" style="fill:#00EA8E"></polygon><polygon id="freepik--down-arrow--inject-428" points="410.93 244.6 425.93 235.94 425.93 157.58 435.93 151.81 418.78 138.62 400.93 172.01 410.93 166.24 410.93 244.6" style="fill:#fff;opacity:0.7000000000000001"></polygon><polygon points="401.82 239.34 410.93 244.6 410.93 166.24 401.82 171.5 401.82 239.34" style="fill:#00EA8E"></polygon><polygon points="401.82 239.34 410.93 244.6 410.93 166.24 401.82 171.5 401.82 239.34" style="fill:#fff;opacity:0.5"></polygon></g><g id="freepik--arrow--inject-428"><polygon points="440 258.34 446.83 262.28 458.07 255.79 458.07 188.1 465.57 183.78 452.71 173.9 445.88 169.95 432.51 194.98 439.34 198.92 440 198.54 440 258.34" style="fill:#00EA8E"></polygon><polygon points="439.34 198.92 452.71 173.9 445.88 169.95 432.51 194.98 439.34 198.92" style="fill:#fff;opacity:0.1"></polygon><polygon id="freepik--down-arrow--inject-428" points="446.83 262.28 458.07 255.79 458.07 188.1 465.57 183.78 452.71 173.9 439.34 198.92 446.83 194.59 446.83 262.28" style="fill:#00EA8E"></polygon><polygon id="freepik--down-arrow--inject-428" points="446.83 262.28 458.07 255.79 458.07 188.1 465.57 183.78 452.71 173.9 439.34 198.92 446.83 194.59 446.83 262.28" style="opacity:0.1"></polygon><polygon points="440 258.34 446.83 262.28 446.83 194.59 440 198.54 440 258.34" style="opacity:0.30000000000000004"></polygon></g></g><g id="freepik--Symbol--inject-428"><g id="freepik--money-symbol--inject-428"><polygon points="74.71 69.06 67.64 64.97 81.32 53.31 88.38 57.39 74.71 69.06" style="fill:#00EA8E"></polygon><path d="M79.05,71.75c-3.61-2.56-9.89-.62-15.2,1q-1.92.65-3.48,1.14a6.33,6.33,0,0,0-.52,2.46c0,4.12,3.49,3,11.07.49a56.25,56.25,0,0,1,7.84-2.06c.23,2.1,1.69,4,7.36,1Z" style="fill:#00EA8E"></path><polygon points="61.54 125.35 54.48 121.27 54.48 112.92 61.54 117.02 61.54 125.35" style="fill:#00EA8E"></polygon><path d="M73.52,93.67c0,3.32-2.5,6.28-6.19,8.43-5.89,3.42-8.18.63-8.69-2.09l-1.24-.72A13.37,13.37,0,0,0,60.26,98c2.8-1.63,4.9-3.73,5.76-6.09C70.38,90.5,73.52,89.94,73.52,93.67Z" style="fill:#00EA8E"></path><path d="M47.24,114.13a4.65,4.65,0,0,0-2.58-.63c-.14-.42-.27-.85-.38-1.32l-7.07-4.09c.7,3.07,2.11,5,4,6h0l7,4.08S49.41,115.55,47.24,114.13Z" style="fill:#00EA8E"></path><path d="M70.92,76.89c-7.58,2.5-11.07,3.63-11.07-.49a6.33,6.33,0,0,1,.52-2.46c-5.18,1.6-7.59,1.8-7.59-1.62,0-2.52,1.7-5.62,6.38-8.34,5-2.9,7.79-2.22,8.48,1L81.32,53.31c-.06-.18-.13-.34-.2-.5a8.83,8.83,0,0,0,2.43-.94l-5.64-3.35c-.17-.11-.35-.22-.54-.32l-.08-.05h0a9.58,9.58,0,0,0-5.37-.88,23.55,23.55,0,0,0-7.07,1.94v-.15L71.92,45l-7.07-4.08h0l-4.79,2.79-6.49,3.77h0v8.33C44,62.74,38,71.86,38,81.71c0,4.49,1.21,7,3.17,8.33h0l.09,0a5.39,5.39,0,0,0,.52.3l5.92,3.33a4.41,4.41,0,0,0-.36-2.67,33.9,33.9,0,0,0,5.53-1.21c7.19-2.17,13.57-5.58,13.57-.26A6.83,6.83,0,0,1,66,91.92c4.36-1.42,7.5-2,7.5,1.75,0,3.32-2.5,6.28-6.19,8.43-5.89,3.42-8.18.63-8.69-2.09h0l-1.24-.72-5.82-3.37L37.21,108.09l7.07,4.09a12.52,12.52,0,0,0,1.08,3,22.9,22.9,0,0,0,9.12-2.26v3.38l11.17-1.53v-8.34C75.33,99.3,82,89.68,82,79.64a13.52,13.52,0,0,0-.8-5C78,74.67,74.27,75.83,70.92,76.89Z" style="fill:#00EA8E"></path><path d="M70.92,76.89c-7.58,2.5-11.07,3.63-11.07-.49a6.33,6.33,0,0,1,.52-2.46c-5.18,1.6-7.59,1.8-7.59-1.62,0-2.52,1.7-5.62,6.38-8.34,5-2.9,7.79-2.22,8.48,1L81.32,53.31c-.06-.18-.13-.34-.2-.5a8.83,8.83,0,0,0,2.43-.94l-5.64-3.35c-.17-.11-.35-.22-.54-.32l-.08-.05h0a9.58,9.58,0,0,0-5.37-.88,23.55,23.55,0,0,0-7.07,1.94v-.15L71.92,45l-7.07-4.08h0l-4.79,2.79-6.49,3.77h0v8.33C44,62.74,38,71.86,38,81.71c0,4.49,1.21,7,3.17,8.33h0l.09,0a5.39,5.39,0,0,0,.52.3l5.92,3.33a4.41,4.41,0,0,0-.36-2.67,33.9,33.9,0,0,0,5.53-1.21c7.19-2.17,13.57-5.58,13.57-.26A6.83,6.83,0,0,1,66,91.92c4.36-1.42,7.5-2,7.5,1.75,0,3.32-2.5,6.28-6.19,8.43-5.89,3.42-8.18.63-8.69-2.09h0l-1.24-.72-5.82-3.37L37.21,108.09l7.07,4.09a12.52,12.52,0,0,0,1.08,3,22.9,22.9,0,0,0,9.12-2.26v3.38l11.17-1.53v-8.34C75.33,99.3,82,89.68,82,79.64a13.52,13.52,0,0,0-.8-5C78,74.67,74.27,75.83,70.92,76.89Z" style="fill:#fff;opacity:0.4"></path><path d="M81.21,74.6c-3.2.07-6.94,1.23-10.29,2.29-7.58,2.5-11.07,3.63-11.07-.49a6.33,6.33,0,0,1,.52-2.46c.81-1.93,2.62-4,5.86-5.88,5-2.9,7.78-2.21,8.48,1L88.38,57.39c-1.31-3.94-4-6-7.93-6.08a21.25,21.25,0,0,0-8.53,2V45l-7.07,4.11-4.2,2.45v8.33c-9.59,7-15.57,16.1-15.57,25.94a14.43,14.43,0,0,0,.85,5.37c2.11,5.28,7.91,4.56,14,2.77,2.14-.65,4.22-1.4,6.08-2,4.36-1.42,7.5-2,7.5,1.75,0,3.32-2.5,6.28-6.19,8.43-5.89,3.42-8.18.63-8.69-2.09L44.28,112.18a12.52,12.52,0,0,0,1.08,3c1.88,3.51,5.22,4.47,9.12,4A27.21,27.21,0,0,0,61.54,117v8.33l11.18-6.45v-8.39c9.68-7.12,16.36-16.74,16.36-26.79C89.08,76.49,85.65,74.49,81.21,74.6Z" style="fill:#00EA8E"></path><g style="opacity:0.2"><path d="M81.21,74.6c-3.2.07-6.94,1.23-10.29,2.29-7.58,2.5-11.07,3.63-11.07-.49a6.33,6.33,0,0,1,.52-2.46c.81-1.93,2.62-4,5.86-5.88,5-2.9,7.78-2.21,8.48,1L88.38,57.39c-1.31-3.94-4-6-7.93-6.08a21.25,21.25,0,0,0-8.53,2V45l-7.07,4.11-4.2,2.45v8.33c-9.59,7-15.57,16.1-15.57,25.94a14.43,14.43,0,0,0,.85,5.37c2.11,5.28,7.91,4.56,14,2.77,2.14-.65,4.22-1.4,6.08-2,4.36-1.42,7.5-2,7.5,1.75,0,3.32-2.5,6.28-6.19,8.43-5.89,3.42-8.18.63-8.69-2.09L44.28,112.18a12.52,12.52,0,0,0,1.08,3c1.88,3.51,5.22,4.47,9.12,4A27.21,27.21,0,0,0,61.54,117v8.33l11.18-6.45v-8.39c9.68-7.12,16.36-16.74,16.36-26.79C89.08,76.49,85.65,74.49,81.21,74.6Z" style="fill:#fff"></path></g><polygon points="60.64 59.86 53.57 55.77 53.57 47.43 60.64 51.52 60.64 59.86" style="fill:#00EA8E"></polygon><path d="M72.72,110.51l1.09-.87c.35-.27.77-.61,1.24-1s1-.85,1.56-1.38,1.17-1.06,1.77-1.69l.94-1,.94-1c.33-.34.64-.71.95-1.09s.64-.75.94-1.15c.6-.8,1.22-1.6,1.76-2.45S85,97.14,85.5,96.28s.92-1.74,1.28-2.62.68-1.74,1-2.55l.35-1.22c.06-.2.12-.39.17-.58l.13-.57c.16-.74.31-1.42.38-2s.18-1.14.19-1.59c0-.88.08-1.39.08-1.39l0,1.4c0,.44-.07,1-.13,1.6a16.45,16.45,0,0,1-.33,2.06l-.11.57c0,.2-.1.39-.16.59-.11.4-.22.81-.33,1.24-.3.82-.56,1.71-1,2.58a29.32,29.32,0,0,1-1.28,2.66c-.5.87-1,1.77-1.58,2.6s-1.18,1.67-1.79,2.47c-.3.39-.64.77-1,1.15s-.63.74-1,1.09l-1,1-1,.94c-.62.62-1.25,1.16-1.82,1.67s-1.13.94-1.61,1.33-.91.72-1.27,1Z" style="fill:#fff"></path></g></g><g id="freepik--light-bulb--inject-428"><g id="freepik--light-bulb--inject-428"><g id="freepik--Light--inject-428"><path d="M445.48,121a4.82,4.82,0,1,1-4.78-4.84A4.81,4.81,0,0,1,445.48,121Z" style="fill:#37474f"></path><path d="M434.89,121.19c-3.17-1.86-3.14-4.85.06-6.66a12.7,12.7,0,0,1,11.53.09c3.17,1.86,3.15,4.84-.05,6.66A12.78,12.78,0,0,1,434.89,121.19Z" style="fill:#455a64"></path><path d="M434.73,119.45c-3.27-1.92-3.25-5,0-6.86a13.08,13.08,0,0,1,11.89.09c3.27,1.92,3.25,5-.05,6.86A13.14,13.14,0,0,1,434.73,119.45Z" style="fill:#37474f"></path><path d="M434.56,117.66c-3.37-2-3.34-5.15.06-7.08a13.53,13.53,0,0,1,12.25.1c3.37,2,3.35,5.14-.05,7.07A13.55,13.55,0,0,1,434.56,117.66Z" style="fill:#455a64"></path><path d="M434.39,115.81c-3.48-2-3.45-5.3.05-7.29a13.94,13.94,0,0,1,12.64.1c3.47,2,3.44,5.3-.06,7.29A14,14,0,0,1,434.39,115.81Z" style="fill:#37474f"></path><path d="M434.27,113.87c-3.54-2.08-3.52-5.41.06-7.44a14.25,14.25,0,0,1,12.89.1c3.54,2.08,3.52,5.41-.06,7.44A14.22,14.22,0,0,1,434.27,113.87Z" style="fill:#455a64"></path><path d="M441.14,57.89a22.93,22.93,0,0,0-23.09,22.75c-.13,18.19,14.85,21.32,14.8,28.66a3.92,3.92,0,0,0,2.29,3.24,12.37,12.37,0,0,0,11.18.09,3.94,3.94,0,0,0,2.34-3.21h0c.06-7.34,15.09-10.24,15.23-28.44A22.93,22.93,0,0,0,441.14,57.89Z" style="fill:#00EA8E"></path><g style="opacity:0.6000000000000001"><path d="M441.14,57.89a22.93,22.93,0,0,0-23.09,22.75c-.13,18.19,14.85,21.32,14.8,28.66a3.92,3.92,0,0,0,2.29,3.24,12.37,12.37,0,0,0,11.18.09,3.94,3.94,0,0,0,2.34-3.21h0c.06-7.34,15.09-10.24,15.23-28.44A22.93,22.93,0,0,0,441.14,57.89Z" style="fill:#fff"></path></g><path d="M436.53,111.56c-2.31-1.36-2.29-3.53,0-4.86a9.3,9.3,0,0,1,8.41.07c2.31,1.36,2.29,3.53,0,4.85A9.27,9.27,0,0,1,436.53,111.56Z" style="fill:#00EA8E"></path><path d="M443.82,108.62a.79.79,0,0,1-.78-.77,55.66,55.66,0,0,1,1.71-13.08,27.73,27.73,0,0,1,1.17-3.63,10.75,10.75,0,0,1-2-1,13.42,13.42,0,0,1-3-2.58,13.23,13.23,0,0,1-3.06,2.53,10.35,10.35,0,0,1-2,1A27.31,27.31,0,0,1,437,94.71a56.14,56.14,0,0,1,1.51,13.11.78.78,0,0,1-1.56,0,55,55,0,0,0-1.46-12.7,25.57,25.57,0,0,0-1.14-3.64,4.85,4.85,0,0,1-4.32-1.3,2.49,2.49,0,0,1-.31-3.21,2.07,2.07,0,0,1,2.12-.88c1.23.26,2.41,1.52,3.42,3.59a8.65,8.65,0,0,0,1.81-.86A11.83,11.83,0,0,0,440,86.3a5.74,5.74,0,0,1-1.1-4.38,2.19,2.19,0,0,1,4.18,0,5.72,5.72,0,0,1-1.17,4.36,11.76,11.76,0,0,0,2.89,2.52,8,8,0,0,0,1.8.88c1-2,2.24-3.29,3.47-3.53a2.1,2.1,0,0,1,2.11.91,2.49,2.49,0,0,1-.36,3.2,4.89,4.89,0,0,1-4.35,1.24,26.15,26.15,0,0,0-1.18,3.62,54.81,54.81,0,0,0-1.66,12.68.78.78,0,0,1-.77.79ZM431.4,87.56c-.13,0-.28,0-.45.28a1,1,0,0,0,.21,1.24,3.13,3.13,0,0,0,2.48.85c-.82-1.53-1.62-2.26-2.13-2.36ZM448.16,90a3.17,3.17,0,0,0,2.5-.81c.14-.16.6-.71.22-1.24-.21-.3-.4-.31-.55-.28C449.81,87.81,449,88.52,448.16,90ZM441,82a.52.52,0,0,0-.6.41,3.75,3.75,0,0,0,.58,2.55,3.72,3.72,0,0,0,.61-2.54A.51.51,0,0,0,441,82Z" style="fill:#fff"></path></g><path d="M441.35,49.16a1.34,1.34,0,0,1-.4.06,1.49,1.49,0,0,1-1.49-1.5V39.91A1.48,1.48,0,0,1,441,38.42a1.5,1.5,0,0,1,1.5,1.5v7.8A1.49,1.49,0,0,1,441.35,49.16Z" style="fill:#e0e0e0"></path><path d="M424.69,53.61a1.51,1.51,0,0,1-1.69-.7l-3.9-6.76a1.5,1.5,0,0,1,2.6-1.5l3.89,6.76a1.49,1.49,0,0,1-.55,2.05A2.17,2.17,0,0,1,424.69,53.61Z" style="fill:#e0e0e0"></path><path d="M412.49,65.78a1.5,1.5,0,0,1-1.15-.15l-6.75-3.91a1.5,1.5,0,1,1,1.5-2.59L412.84,63a1.5,1.5,0,0,1,.55,2.05A1.53,1.53,0,0,1,412.49,65.78Z" style="fill:#e0e0e0"></path><path d="M408,82.43a1.75,1.75,0,0,1-.4,0H399.8a1.5,1.5,0,0,1,0-3h7.8a1.5,1.5,0,0,1,.4,2.94Z" style="fill:#e0e0e0"></path><path d="M482.42,82.52a1.75,1.75,0,0,1-.4,0h-7.8a1.5,1.5,0,1,1,0-3H482a1.5,1.5,0,0,1,.4,3Z" style="fill:#e0e0e0"></path><path d="M470.17,65.85A1.5,1.5,0,0,1,469,63.11l6.76-3.9a1.5,1.5,0,0,1,1.5,2.6l-6.77,3.89A1.19,1.19,0,0,1,470.17,65.85Z" style="fill:#e0e0e0"></path><path d="M458,53.64a1.48,1.48,0,0,1-1.14-.14,1.5,1.5,0,0,1-.55-2l3.91-6.75a1.5,1.5,0,0,1,2.6,1.5L458.9,53A1.49,1.49,0,0,1,458,53.64Z" style="fill:#e0e0e0"></path></g></g><g id="freepik--Puzzle--inject-428"><g id="freepik--puzzle--inject-428"><path d="M398.61,310.53c-1.25-.63-2.45-1.26-3.64-1.88l-.61-.31c-8.28-4.32-15.17-8.15-20.41-11.52h0c.74-.1,1.49-.19,2.22-.25,4.92-.39,7.77-1.53,9.31-2.41,2.26-1.31,3.31-3.11,3.26-5.06h0v-18a5.55,5.55,0,0,0-.15-1.2,6.27,6.27,0,0,0-.29-.9c-.86-2.13-2.92-4.29-6.08-6.12a27,27,0,0,0-2.85-1.41A30.24,30.24,0,0,0,367,259.09a16.82,16.82,0,0,0-7.75,1.89c-.19.11-.4.27-.6.41a8.73,8.73,0,0,0-1.81,1.54,8,8,0,0,0-1.78,3.42,9.41,9.41,0,0,1-.45,1.36,9.61,9.61,0,0,1-1.7,2.67c-1.88,2.11-5,3.77-9.47,3.83-4.33.06-9.19-1.51-14.74-4.27-7.14-3.54-15.44-9.05-25.27-15.57l-4.07-2.69L297.06,253c-3.87,2.2-7.63,4.3-11.24,6.31-15.86,8.8-27.32,15.17-27.12,20l0,18c.16,4.16,7.43,6.22,13.6,6.71l.49.06h0c-.46.14-.94.25-1.41.37s-.91.24-1.37.33-.95.19-1.43.27-1,.14-1.46.2-.86.1-1.28.13c-.87.06-1.72.09-2.56.07l-.71-.05c-.66,0-1.3-.09-1.92-.18-.3,0-.58-.1-.86-.15a16.57,16.57,0,0,1-1.65-.4c-.24-.07-.48-.13-.71-.21a12.08,12.08,0,0,1-2-.89,12.34,12.34,0,0,1-1.21-.82,8.5,8.5,0,0,1-1.2-1.14,8,8,0,0,1-1.78-3.42,9.05,9.05,0,0,0-1.16-2.71c-1.7-2.69-5.06-5.07-10.46-5.14a19,19,0,0,0-2.48.13,30.86,30.86,0,0,0-8,2.19c-1.92.77-3.93,1.71-6.06,2.81s-4.39,2.35-6.8,3.74l-2.27,1.34-4.73,2.8-2.46,1.47c-3.64,2.19-7.56,4.77-12,7.31l0,18c4.94,3.28,9.46,6.46,13.82,9.53,12.4,8.75,22.19,15.66,29.32,15.57,6-.08,8.94-3.75,9.69-6.86a9.65,9.65,0,0,1,4.75-6c5.66-3.27,15.74-2.82,23.54.77h0c-.62.14-1.3.26-2,.37l-.43.07c-.77.11-1.57.21-2.45.28s-2.06.21-3.09.39c-.69.11-1.38.25-2,.41-3.64.88-6.67,2.44-6.76,4.8h0v18c-.17,4.2,10.37,9.23,25,16.2,4.6,2.19,9.78,4.67,15.15,7.37h0l.41-.27,0,0c6.17-3.52,12-6.6,17.24-9.32,12.1-6.32,20.84-10.88,20.68-14.74h0v-18c-.06-1.5-1.31-2.68-3.15-3.56a21.69,21.69,0,0,0-5.65-1.65c-1-.18-2.08-.3-3.09-.38h0c-.88-.07-1.69-.17-2.46-.29l-.44-.06c-.73-.12-1.41-.24-2-.39,7.81-3.58,17.87-4,23.53-.76a9.64,9.64,0,0,1,4.75,6c.75,3.12,3.74,6.78,9.69,6.86,6.59.09,14.92-5.24,26.44-12.61,5.23-3.35,11.14-7.13,17.93-11.08l0-18C401.58,312.05,400.08,311.29,398.61,310.53Z" style="fill:#ebebeb"></path><path d="M297.06,253c-3.87,2.2-7.63,4.3-11.24,6.31-15.86,8.8-27.31,15.17-27.12,20l0,18c.16,4.16,7.43,6.22,13.6,6.71l.49.06h0c-.46.14-.94.25-1.41.37s-.91.24-1.37.33-.95.19-1.43.27-1,.14-1.46.2-.86.1-1.28.13c-.87.06-1.72.09-2.56.07l-.71-.05c-.66,0-1.3-.09-1.92-.18-.3,0-.58-.1-.86-.15a16.57,16.57,0,0,1-1.65-.4c-.24-.07-.48-.13-.71-.21a12.08,12.08,0,0,1-2-.89,12.34,12.34,0,0,1-1.21-.82,8.5,8.5,0,0,1-1.2-1.14,8,8,0,0,1-1.78-3.42,9.05,9.05,0,0,0-1.16-2.71c-1.7-2.69-5.06-5.07-10.46-5.14a19,19,0,0,0-2.48.13,30.86,30.86,0,0,0-8,2.19c-1.92.77-3.93,1.71-6.06,2.81s-4.39,2.35-6.8,3.74l-2.27,1.34-4.73,2.8-2.46,1.47c-3.64,2.19-7.56,4.77-12,7.31l0,18c4.94,3.28,9.46,6.46,13.82,9.53,12.4,8.75,22.19,15.66,29.32,15.57,6-.08,8.94-3.75,9.69-6.86a9.65,9.65,0,0,1,4.75-6c5.66-3.27,15.74-2.82,23.54.77h0c-.62.14-1.3.26-2,.37l-.43.07c-.77.11-1.57.21-2.45.28s-2.06.21-3.09.39c-.69.11-1.38.25-2,.41-3.64.88-6.67,2.44-6.76,4.8h0v18c-.17,4.2,10.37,9.23,25,16.2,4.6,2.19,9.78,4.67,15.15,7.37h0V251.77Z" style="opacity:0.1"></path><path d="M282.81,366.57c-4.46-2.13-8.47-4-11.95-5.81,4.8-.41,7.62-1.53,9.13-2.4,2.31-1.33,3.36-3.17,3.27-5.16h0V335.94c.31-2.9-1.94-6.24-6.51-8.87-7.23-4.18-17.54-5-23-1.88a8.47,8.47,0,0,0-4.19,5.37c-.86,3.57-4.42,7.76-11.62,7.86-8.1.11-17.67-6.64-30.91-16-4.33-3.05-8.82-6.21-13.7-9.45-4.29,2.46-8.45,4.79-12.48,7-15.29,8.52-27.37,15.25-27.2,19.67l0,18c.14,3.43,6.49,5.16,11.89,5.59a35.43,35.43,0,0,1,4.94.74c-7.81,3.58-17.88,4-23.53.76a9.64,9.64,0,0,1-4.75-6c-.75-3.12-3.74-6.78-9.7-6.86-7.51-.1-16.68,5.41-30.57,13.76-3.88,2.33-8.26,5-13.06,7.74l0,18c3.92,2,7.71,3.83,11.26,5.58,6.06,3,11.39,5.6,15.78,8l-.58.05c-4.92.4-7.78,1.54-9.31,2.42-2.18,1.26-3.24,3-3.27,4.85h0l0,18.14h0c0,2.76,2.26,5.83,6.52,8.3,7.23,4.17,17.54,5,23,1.88a8.54,8.54,0,0,0,4.18-5.37c.86-3.57,4.42-7.76,11.62-7.86,8.29-.11,18.78,6.37,33.3,15.34,4.16,2.57,8.86,5.47,13.86,8.44l3.09-1.78c19-10.95,34-19.61,33.82-24.94l0-18c-.14-3.44-6.49-5.16-11.89-5.59a35.43,35.43,0,0,1-4.94-.74c7.81-3.58,17.87-4,23.53-.76a9.62,9.62,0,0,1,4.75,6c.75,3.11,3.74,6.78,9.69,6.86,9.08.12,20.83-6.69,40.29-17.95l4.18-2.43,0-18C292.47,371.19,287.35,368.74,282.81,366.57Z" style="fill:#f5f5f5"></path><path d="M172.76,362.91c-7,4.06-16.81,5.2-23.29,3h0c5.81,2,14.26,1.24,21-1.87a35.56,35.56,0,0,0-4.94-.73c-5.4-.43-11.75-2.15-11.89-5.59l0-18c.14,3.43,6.49,5.16,11.89,5.6S174.27,347,176,348C182.23,351.6,180.77,358.28,172.76,362.91Z" style="fill:#ebebeb"></path><path d="M149.47,409.42v18c-.48,0-1-.06-1.44-.05-7.2.1-10.75,4.29-11.61,7.85a8.53,8.53,0,0,1-4.19,5.37,12.67,12.67,0,0,1-2.54,1.07v-18a11.87,11.87,0,0,0,2.56-1.08,8.52,8.52,0,0,0,4.19-5.38c.86-3.56,4.41-7.75,11.62-7.85A13.43,13.43,0,0,1,149.47,409.42Z" style="fill:#ebebeb"></path><path d="M232.12,406.56l0,17.91c.21,5.33-14.82,14-33.82,24.93l-3.09,1.78,0-18,3.08-1.78C217.16,420.52,232.1,411.9,232.12,406.56Z" style="fill:#ebebeb"></path><path d="M257.11,349.46c.17-4.16,7.43-6.21,13.6-6.71,4.92-.39,7.77-1.53,9.31-2.42a5.89,5.89,0,0,0,3.25-4.31V353.2h0c.09,2-1,3.83-3.26,5.16-1.52.87-4.34,2-9.14,2.4C262.19,356.34,257,352.86,257.11,349.46Z" style="fill:#ebebeb"></path><path d="M297.76,373.84l0,18-4.18,2.42c-19.46,11.27-31.22,18.09-40.29,18-5.95-.09-8.94-3.76-9.69-6.87a9.64,9.64,0,0,0-4.75-6c-5.66-3.26-15.72-2.82-23.53.76a19.93,19.93,0,0,1-5.5-2c-6.21-3.58-4.75-10.26,3.26-14.89s19.58-5.47,25.79-1.88a9.59,9.59,0,0,1,4.75,6c.76,3.12,3.74,6.79,9.7,6.87,9.07.12,20.82-6.69,40.28-18Z" style="fill:#ebebeb"></path><path d="M293.57,376.26c-19.46,11.27-31.21,18.08-40.28,18-6-.08-8.95-3.75-9.69-6.86a9.66,9.66,0,0,0-4.76-6c-6.21-3.59-17.78-2.74-25.79,1.88s-9.47,11.3-3.26,14.89c1.75,1,5,2.31,10.44,2.75S232,403,232.12,406.44c.21,5.33-14.81,14-33.82,24.94l-3.08,1.78c-5-3-9.71-5.87-13.87-8.44-14.51-9-25-15.45-33.29-15.34-7.2.1-10.76,4.29-11.62,7.85a8.52,8.52,0,0,1-4.19,5.38c-5.43,3.13-15.74,2.29-23-1.88s-8.7-10.13-3.26-13.27c1.53-.88,4.39-2,9.3-2.42,6.17-.49,13.44-2.54,13.61-6.71.21-5.1-11.32-10.77-28.78-19.34-3.55-1.75-7.34-3.61-11.26-5.59,4.8-2.78,9.18-5.41,13.06-7.74,13.89-8.35,23.06-13.86,30.57-13.76,6,.08,8.95,3.74,9.7,6.86a9.64,9.64,0,0,0,4.75,6c6.21,3.58,17.78,2.74,25.79-1.88S182.23,351.6,176,348c-1.75-1-5-2.31-10.44-2.75s-11.75-2.16-11.89-5.59c-.17-4.42,11.91-11.15,27.2-19.67,4-2.24,8.19-4.57,12.48-7,4.88,3.24,9.37,6.4,13.7,9.45,13.24,9.35,22.81,16.1,30.91,16,7.2-.1,10.76-4.29,11.62-7.86a8.47,8.47,0,0,1,4.19-5.37c5.43-3.14,15.74-2.3,23,1.88s8.69,10.13,3.26,13.26c-1.53.89-4.39,2-9.31,2.42-6.17.5-13.43,2.55-13.6,6.71-.19,4.76,10.11,9.68,25.7,17.11,4.54,2.17,9.66,4.62,14.95,7.27Z" style="fill:#fafafa"></path><path d="M193.34,313.93c4.65,3.09,8.93,6.1,13.27,9.16,13.27,9.37,22.86,16.13,31.17,16.13H238c7.66-.1,11.46-4.63,12.39-8.47a7.71,7.71,0,0,1,3.81-4.86,16.5,16.5,0,0,1,8.14-1.79,29.24,29.24,0,0,1,14,3.67c3.85,2.22,6.14,5.07,6.14,7.63,0,1.68-1,3.15-2.88,4.24-1.46.84-4.21,1.93-9,2.31-6.81.55-14.15,2.8-14.35,7.48-.21,5.29,9.72,10,26.16,17.87,3.67,1.75,8.59,4.1,13.6,6.59l-2.89,1.68-.08,0c-19.18,11.11-30.75,17.81-39.56,17.81h-.23c-5.5-.08-8.24-3.42-8.92-6.25a10.44,10.44,0,0,0-5.14-6.54,20.9,20.9,0,0,0-10.34-2.33,33.48,33.48,0,0,0-16.25,4.21c-4.78,2.76-7.51,6.35-7.51,9.85,0,2.57,1.51,4.85,4.25,6.44,1.82,1.05,5.17,2.4,10.78,2.85,5.29.42,11,2.11,11.15,4.82.19,4.85-15.38,13.82-33.42,24.21l-2.68,1.55c-4.68-2.78-9-5.47-13.45-8.2-14.52-9-25-15.46-33.5-15.46h-.22c-7.67.1-11.47,4.62-12.39,8.47a7.77,7.77,0,0,1-3.81,4.86,16.5,16.5,0,0,1-8.14,1.79,29.24,29.24,0,0,1-14-3.67c-3.85-2.22-6.14-5.08-6.14-7.64,0-1.68,1-3.14,2.88-4.23,1.46-.85,4.2-1.93,9-2.32,6.81-.54,14.15-2.79,14.34-7.47.23-5.63-10.86-11.08-29.22-20.1-3-1.46-6.39-3.14-9.93-4.92,4.43-2.58,8.48-5,11.82-7,13.66-8.2,22.68-13.62,29.92-13.62h.19c5.5.07,8.24,3.41,8.93,6.25a10.38,10.38,0,0,0,5.13,6.53,20.79,20.79,0,0,0,10.34,2.33,33.44,33.44,0,0,0,16.26-4.21c4.77-2.75,7.5-6.34,7.5-9.85,0-2.56-1.51-4.85-4.25-6.43-1.82-1.05-5.17-2.4-10.77-2.85-5.3-.42-11.05-2.12-11.16-4.83-.15-3.92,12.92-11.2,26.8-18.93,4-2.24,8-4.45,12.05-6.78m0-.95c-4.29,2.46-8.45,4.79-12.48,7-15.29,8.52-27.37,15.25-27.2,19.67.14,3.43,6.49,5.16,11.89,5.59S174.27,347,176,348c6.21,3.58,4.75,10.26-3.26,14.89a32.78,32.78,0,0,1-15.85,4.1,20.21,20.21,0,0,1-9.94-2.22,9.64,9.64,0,0,1-4.75-6c-.75-3.12-3.74-6.78-9.7-6.86h-.2c-7.47,0-16.6,5.49-30.37,13.77-3.88,2.33-8.26,5-13.06,7.74,3.92,2,7.71,3.84,11.26,5.59,17.46,8.57,29,14.24,28.78,19.34-.17,4.17-7.44,6.22-13.61,6.71-4.91.4-7.77,1.54-9.3,2.42-5.44,3.14-4,9.09,3.26,13.27a29.91,29.91,0,0,0,14.43,3.77,17.37,17.37,0,0,0,8.54-1.89,8.52,8.52,0,0,0,4.19-5.38c.86-3.56,4.42-7.75,11.62-7.85h.21c8.26,0,18.69,6.44,33.08,15.34,4.16,2.57,8.86,5.47,13.87,8.44l3.08-1.78c19-10.95,34-19.61,33.82-24.94-.14-3.44-6.49-5.16-11.89-5.59s-8.69-1.74-10.44-2.75c-6.21-3.59-4.75-10.27,3.26-14.89a32.81,32.81,0,0,1,15.85-4.1,20.21,20.21,0,0,1,9.94,2.22,9.66,9.66,0,0,1,4.76,6c.74,3.11,3.73,6.78,9.69,6.86h.24c9,0,20.76-6.79,40-18l4.19-2.42c-5.29-2.65-10.41-5.1-14.95-7.27-15.59-7.43-25.89-12.35-25.7-17.11.17-4.16,7.43-6.21,13.6-6.71,4.92-.39,7.78-1.53,9.31-2.42,5.43-3.13,4-9.09-3.26-13.26a29.92,29.92,0,0,0-14.43-3.78,17.37,17.37,0,0,0-8.54,1.9,8.47,8.47,0,0,0-4.19,5.37c-.86,3.57-4.42,7.76-11.62,7.86h-.2c-8.05,0-17.57-6.72-30.71-16-4.33-3.05-8.82-6.21-13.7-9.45Z" style="fill:#ebebeb"></path><path d="M194.79,312.17c4.39-2.54,8.31-5.12,12-7.31,3.41-2,6.55-3.92,9.46-5.61,9.64-5.56,16.86-9,23.37-8.87,7.2.1,10.76,4.29,11.62,7.85a8.52,8.52,0,0,0,4.19,5.38c5.43,3.13,15.74,2.29,23-1.89s8.7-10.12,3.26-13.26c-1.53-.89-4.39-2-9.31-2.42-6.17-.49-13.43-2.55-13.6-6.71-.2-4.86,11.26-11.23,27.12-20,4.33-2.41,8.82-4.9,13.55-7.62h0l4.07,2.69c17.48,11.6,30.11,20,40,19.84,7.21-.1,10.77-4.29,11.62-7.86a8.53,8.53,0,0,1,4.19-5.37c5.43-3.14,15.74-2.3,23,1.88s8.69,10.13,3.25,13.27c-1.53.88-4.39,2-9.31,2.41-6.16.5-13.43,2.55-13.6,6.71-.23,5.74,15.32,14.82,40.54,27.58-6.78,3.95-12.69,7.73-17.93,11.08-11.52,7.37-19.84,12.7-26.43,12.61-6-.08-8.94-3.75-9.69-6.86a9.66,9.66,0,0,0-4.76-6c-6.21-3.59-17.78-2.74-25.79,1.88s-9.47,11.31-3.26,14.89c1.75,1,5,2.31,10.44,2.75s11.75,2.16,11.89,5.59c.16,3.86-8.58,8.42-20.67,14.74-5.21,2.72-11.08,5.8-17.24,9.32l0,0-.4.27h0c-5.37-2.7-10.56-5.18-15.15-7.37-14.6-7-25.15-12-25-16.2.13-3.44,6.48-5.16,11.89-5.6s8.69-1.73,10.44-2.74c6.21-3.59,4.75-10.27-3.26-14.89s-19.58-5.47-25.79-1.88a9.6,9.6,0,0,0-4.75,6c-.75,3.12-3.74,6.79-9.7,6.87-7.12.09-16.92-6.82-29.32-15.57C204.25,318.63,199.73,315.44,194.79,312.17Z" style="fill:#fafafa"></path><path d="M299.34,252.62l3.68,2.44c17.47,11.58,30.09,19.95,40.2,19.95h.24c7.68-.1,11.47-4.63,12.39-8.47a7.71,7.71,0,0,1,3.81-4.86,16.5,16.5,0,0,1,8.14-1.79,29.24,29.24,0,0,1,14,3.67c3.85,2.22,6.14,5.07,6.14,7.63,0,1.69-1,3.15-2.88,4.24-1.46.84-4.2,1.93-9,2.31-6.81.55-14.15,2.8-14.34,7.48-.25,6.12,14.33,14.8,39.66,27.66-6.28,3.7-11.79,7.22-16.68,10.35-11.33,7.25-19.51,12.49-25.84,12.49h-.15c-5.49-.08-8.24-3.41-8.92-6.25a10.41,10.41,0,0,0-5.13-6.53,20.86,20.86,0,0,0-10.35-2.34,33.48,33.48,0,0,0-16.25,4.21c-4.77,2.76-7.51,6.35-7.51,9.86,0,2.56,1.51,4.85,4.25,6.43,1.82,1,5.17,2.4,10.78,2.85,5.29.42,11,2.11,11.15,4.83.14,3.34-9.31,8.27-20.24,14-4.51,2.35-10.64,5.56-16.9,9.12l-.07,0-.38.25,0,0c-5.42-2.72-10.79-5.28-14.76-7.17-13.23-6.32-24.65-11.77-24.51-15.44.11-2.71,5.86-4.4,11.15-4.83,5.61-.45,9-1.79,10.78-2.85,2.74-1.58,4.25-3.86,4.25-6.43,0-3.5-2.73-7.09-7.51-9.85a33.38,33.38,0,0,0-16.26-4.21A20.78,20.78,0,0,0,252,323.68a10.41,10.41,0,0,0-5.14,6.54c-.68,2.83-3.42,6.17-8.92,6.24h-.14c-6.85,0-16.5-6.8-28.71-15.41-3.82-2.7-8.11-5.73-12.76-8.84,2.22-1.31,4.3-2.61,6.33-3.87,1.57-1,3.06-1.92,4.52-2.79,3.35-2,6.52-3.91,9.44-5.6,9.38-5.41,16.45-8.77,22.72-8.77h.24c6.74.09,10.06,4,10.85,7.24A9.31,9.31,0,0,0,255,304.3a18.06,18.06,0,0,0,8.94,2,30.55,30.55,0,0,0,14.84-3.89c4.41-2.55,6.94-5.84,6.94-9,0-2.26-1.31-4.25-3.69-5.63-1.6-.92-4.58-2.11-9.64-2.52-6.31-.51-12.73-2.54-12.86-5.94-.18-4.37,11.68-11,26.7-19.3,4-2.19,8.42-4.67,13.13-7.38m0-.94c-4.73,2.72-9.22,5.21-13.55,7.62-15.86,8.8-27.32,15.17-27.12,20,.17,4.16,7.43,6.22,13.6,6.71,4.92.4,7.78,1.53,9.31,2.42,5.44,3.14,4,9.09-3.26,13.26a29.81,29.81,0,0,1-14.43,3.78,17.48,17.48,0,0,1-8.54-1.89,8.52,8.52,0,0,1-4.19-5.38c-.86-3.56-4.42-7.75-11.62-7.85h-.25c-6.45,0-13.61,3.38-23.12,8.87-2.91,1.69-6,3.57-9.46,5.61-3.64,2.19-7.56,4.77-12,7.31,4.94,3.27,9.46,6.46,13.82,9.53,12.32,8.69,22.06,15.57,29.17,15.57h.15c6-.08,8.95-3.75,9.7-6.87a9.6,9.6,0,0,1,4.75-6,20.19,20.19,0,0,1,9.93-2.23,32.72,32.72,0,0,1,15.86,4.11c8,4.62,9.47,11.3,3.26,14.89-1.75,1-5,2.3-10.44,2.74s-11.76,2.16-11.89,5.6c-.17,4.2,10.38,9.23,25,16.2,4.59,2.19,9.78,4.67,15.15,7.37h0l.4-.27,0,0c6.16-3.52,12-6.6,17.24-9.32,12.09-6.32,20.83-10.88,20.67-14.74-.14-3.43-6.49-5.16-11.89-5.59s-8.69-1.74-10.44-2.75c-6.21-3.58-4.75-10.26,3.26-14.89a32.84,32.84,0,0,1,15.85-4.1,20.21,20.21,0,0,1,9.94,2.22,9.66,9.66,0,0,1,4.76,6c.75,3.11,3.73,6.78,9.69,6.86h.16c6.56,0,14.85-5.3,26.27-12.61,5.24-3.35,11.15-7.13,17.93-11.08-25.22-12.76-40.77-21.84-40.54-27.58.17-4.16,7.44-6.21,13.6-6.71,4.92-.39,7.78-1.53,9.31-2.41,5.44-3.14,4-9.09-3.25-13.27a30,30,0,0,0-14.44-3.78,17.37,17.37,0,0,0-8.54,1.9,8.53,8.53,0,0,0-4.19,5.37c-.85,3.57-4.41,7.76-11.62,7.86h-.23c-9.87,0-22.44-8.34-39.78-19.84l-4.07-2.69Z" style="fill:#ebebeb"></path></g></g><g id="freepik--briefcase-2--inject-428"><g id="freepik--Briefcase--inject-428"><path d="M393.78,324.25V370c0,2.21,1.56,3.5,3.48,4.62l4.81,2.78a4.59,4.59,0,0,0,3.75.74,10.27,10.27,0,0,0,2.57-1.05.31.31,0,0,0,.1-.05l.26-.15,49.12-28.37a11.59,11.59,0,0,0,5.8-10V296.82a3.28,3.28,0,0,0-1.5-2.58L454,289.5a3.33,3.33,0,0,0-3,0l-55.73,32.18a3,3,0,0,0-1,1.11A3.07,3.07,0,0,0,393.78,324.25Z" style="fill:#37474f"></path><path d="M393.78,324.25V370c0,2.21,1.56,3.5,3.48,4.62l4.81,2.78a4.59,4.59,0,0,0,3.75.74,10.27,10.27,0,0,0,2.57-1.05v0c-1.92.9-3.43-.1-3.43-2.37V331.6a4.62,4.62,0,0,1,.66-2.23l-11.4-6.58A3.07,3.07,0,0,0,393.78,324.25Z" style="fill:#263238"></path><path d="M405,331.6a5,5,0,0,1,2.26-3.91l52.67-30.41c2.08-1.2,3.78-.21,3.78,2.19v39a11.6,11.6,0,0,1-5.8,10.05l-49.13,28.37c-2.08,1.2-3.79.22-3.79-2.19Z" style="fill:#455a64"></path><path d="M456.63,291l-55.82,32.55a5.23,5.23,0,0,0-2.59,4.51v47l.85.49V328.1a4.39,4.39,0,0,1,2.17-3.78l56.24-32.79Z" style="fill:#00EA8E"></path><path d="M398.91,325.5a5.29,5.29,0,0,0-.69,2.6v47l.85.49V328.1a4.4,4.4,0,0,1,.58-2.17Z" style="opacity:0.2"></path><path d="M399.65,325.93a4.31,4.31,0,0,1,1.59-1.61l56.24-32.79-.85-.49-55.82,32.55a5.27,5.27,0,0,0-1.9,1.91" style="opacity:0.2"></path><path d="M436.8,296.88V304l2.77,1.6v-9.4c0-.49-.33-.68-.76-.44Z" style="fill:#00EA8E"></path><path d="M436.8,296.88V304l2.77,1.6v-9.4c0-.49-.33-.68-.76-.44Z" style="opacity:0.4"></path><path d="M417.35,303.87v11.46l2.65,1.53,1.77-1v-9.4a1.7,1.7,0,0,1,.76-1.31L436,297.34l2.8-1.62c.43-.24.76-.05.76.44v9.4l1.79-1V293.07a.77.77,0,0,0,0-.15,1.64,1.64,0,0,0-.75-1.16l-1.12-.66a1.69,1.69,0,0,0-1.52,0l-19.84,11.46A1.67,1.67,0,0,0,417.35,303.87Z" style="fill:#00EA8E"></path><path d="M420,305.4v11.46l1.77-1v-9.4a1.7,1.7,0,0,1,.76-1.31L436,297.34l2.8-1.62c.43-.24.76-.05.76.44v9.4l1.79-1V293.07a.77.77,0,0,0,0-.15c-.06-.37-.37-.5-.75-.29l-19.84,11.46A1.69,1.69,0,0,0,420,305.4Z" style="opacity:0.2"></path></g></g><g id="freepik--briefcase-1--inject-428"><g id="freepik--briefcase--inject-428"><path d="M59.63,318.06H57V305.87a9.8,9.8,0,0,1,4.5-7.8l14.25-8.23a3.58,3.58,0,0,1,5.74,3.4l-.25,12.38-2.66-.05.25-12.39a1.51,1.51,0,0,0-.41-1.31c-.26-.16-.78-.05-1.34.28L62.8,300.37a7.14,7.14,0,0,0-3.17,5.5Z" style="fill:#37474f"></path><path d="M104.3,348l-2.85-52.51a4.63,4.63,0,0,0-2.07-3.36l-1.64-.95a1.4,1.4,0,0,0-1.45-.11h0L41.42,322.74,49,380.91l54.84-31.66h0A1.32,1.32,0,0,0,104.3,348Z" style="fill:#37474f"></path><path d="M39.38,376l8.28,4.78c1.08.62,1.9.12,1.83-1.12l-2.85-52.51a4.65,4.65,0,0,0-2.07-3.37l-1.64-.95a1.26,1.26,0,0,0-2.06,1.12l-3.32,48.68A4.06,4.06,0,0,0,39.38,376Z" style="fill:#263238"></path><path d="M68.26,365a.76.76,0,0,1-.75-.7l-1.45-24.61a.75.75,0,0,1,.7-.79.76.76,0,0,1,.8.71L69,364.16a.75.75,0,0,1-.7.79Z" style="fill:#00EA8E"></path><path d="M89.28,352.88a.75.75,0,0,1-.75-.71l-1.45-24.6a.74.74,0,0,1,.7-.79.75.75,0,0,1,.79.7L90,352.08a.75.75,0,0,1-.7.8Z" style="fill:#00EA8E"></path><path d="M53.73,351.36a4,4,0,0,1-6-3.22l-1.13-21a4.63,4.63,0,0,0-2.08-3.36l-1.63-.94a1.46,1.46,0,0,0-1.34-.18l54.7-31.59v0a1.34,1.34,0,0,1,1.44.1l1.65.95a4.68,4.68,0,0,1,2.07,3.37l1.11,20.74a11,11,0,0,1-5.47,10.12Z" style="fill:#455a64"></path><polygon points="72.93 337.89 80.88 333.3 81.22 337.7 73.25 342.31 72.93 337.89" style="fill:#00EA8E"></polygon></g></g><g id="freepik--Characters--inject-428"><g id="freepik--characters--inject-428"><g id="freepik--Chartacter--inject-428"><g id="freepik--Bottom--inject-428"><path d="M315.06,285.19l1.61-15.07-17.24,1.14s.26,8.18.5,12.8c.15,2.74-3.54,7.82-3.54,7.82s8.1,4.34,12.44,2.82,6.64-6.92,6.58-8.1S315.06,285.19,315.06,285.19Z" style="fill:#b16668"></path><path d="M273.53,308.72c-.28,0-.73,2.79.73,4,1.68,1.41,6.65,3.75,13.28,3.07s10.24-2.55,12.93-4.57,6.43-4.89,9.44-5.46c2.79-.53,5.83-1.65,6.73-2.44s.84-4.37.84-4.37Z" style="fill:#263238"></path><path d="M315.06,285.16a1.05,1.05,0,0,1,1,.85c.19,1,.36,3.86.77,5.48a27.26,27.26,0,0,1,.51,8.7c-.39,1.83-4.95,3-7.86,4a37.44,37.44,0,0,0-9.47,5.39c-3.15,2.34-9.73,4.73-14,4.62-5.11-.12-10.82-1.76-12.11-4-1.58-2.76-2.72-6,4.9-9.12,1.45-.59,6.52-3.29,8.25-4.27,4.68-2.66,8-5.11,10.2-9.91a2.72,2.72,0,0,1,1.11-1.46,2.56,2.56,0,0,1,1.48-.09c1.25.18,6.27.92,7.41,1.45s2.44,1,2.4,2.24a3.84,3.84,0,0,1-.31,1.23c-.09.25-.17.57.06.73s.51,0,.71-.18a18.43,18.43,0,0,0,2.08-2.25,6.85,6.85,0,0,1,1.22-1.12,11.12,11.12,0,0,0,1.3-.77C315.13,286.26,315,285.73,315.06,285.16Z" style="fill:#455a64"></path><path d="M300,309.58a48.28,48.28,0,0,1,4.17-2.81h0s-9,4.91-12.54,2.55c-2.29-1.52-1.16-3.3-1.09-3.87s-8.05-4.77-10.29-5.06h0c-.64.31-1.17.57-1.5.7-7.62,3.15-6.48,6.36-4.9,9.12,1.29,2.24,5.42,4,12,4.15C290.18,314.42,296.85,311.92,300,309.58Z" style="fill:#37474f"></path><path d="M291.19,303.77c-4.74,1.68-2.74,2.54-1.43,2.74s9.31-4,14.19-7.49c5.1-3.64,8.34-7.66,10.24-9,.7-.5,1.46-1.11,2.14-1.69-.11-1-.19-1.85-.28-2.32a1.05,1.05,0,0,0-1-.85c0,.57.07,1.1-.4,1.52a11.12,11.12,0,0,1-1.3.77,6.85,6.85,0,0,0-1.22,1.12,18.43,18.43,0,0,1-2.08,2.25C305.88,295.63,295.92,302.09,291.19,303.77Z" style="fill:#37474f"></path><path d="M290.11,305.87a.45.45,0,0,0,.29-.1.41.41,0,0,0,.08-.61c-1.3-1.54-7.54-5.26-11-5a.43.43,0,1,0,.09.86c3.24-.27,9.16,3.42,10.19,4.64A.49.49,0,0,0,290.11,305.87Z" style="fill:#263238"></path><path d="M294.25,303.57a.43.43,0,0,0,.3-.09.41.41,0,0,0,.07-.61c-1.3-1.54-7.53-5.26-11-5a.43.43,0,0,0-.42.47.45.45,0,0,0,.5.39c3.24-.26,9.16,3.41,10.19,4.64A.48.48,0,0,0,294.25,303.57Z" style="fill:#263238"></path><path d="M298.39,301.41a.49.49,0,0,0,.3-.1.41.41,0,0,0,.07-.61c-1.3-1.54-7.54-5.26-11-5a.43.43,0,0,0-.42.47.45.45,0,0,0,.5.4c3.24-.27,9.16,3.41,10.19,4.63A.49.49,0,0,0,298.39,301.41Z" style="fill:#263238"></path><path d="M302.23,298.92a.47.47,0,0,0,.3-.1.42.42,0,0,0,.08-.61c-1.31-1.54-7.55-5.26-11-5a.43.43,0,1,0,.09.86c3.23-.26,9.15,3.42,10.19,4.64A.49.49,0,0,0,302.23,298.92Z" style="fill:#263238"></path><path d="M306,296.42a.44.44,0,0,0,.29-.09.42.42,0,0,0,.09-.61c-1.79-2.19-8.33-5.31-11.8-5a.44.44,0,0,0-.42.47.46.46,0,0,0,.51.4c3.12-.26,9.38,2.74,11,4.68A.48.48,0,0,0,306,296.42Z" style="fill:#263238"></path><path d="M340.44,295,338.2,280.4l17.75-.65-.83,13.81s1.28,5.12,0,6.8-13.11,2.35-14.05,1.05S340.44,295,340.44,295Z" style="fill:#b16668"></path><path d="M338.59,326.15c.05,4.46.67,7.41,2.33,10s5,3.35,8.49,2.52,8-3,9.19-6.83,1.15-6.5.59-10.63Z" style="fill:#263238"></path><path d="M355.12,293.56c1.41.08.42,6.08.91,12.06.52,6.42,2.56,9,3.06,14.3.56,6,.05,8.71-2.55,12.39s-11.29,7.42-15.19,2.28c-3.18-4.19-3.06-8.91-2.42-14.93a136.3,136.3,0,0,0,1.15-15.32c0-4.51-.91-8.61.35-9.13.06.66.1,1.5.17,2.15,0,.5.06,2.94.85,2.94a8.73,8.73,0,0,0,.11-1.7,1.93,1.93,0,0,1,.47-1.46,6.47,6.47,0,0,1,2.37-.91c1.41-.27,3.9-.53,5.33-.67.7-.06,1.41-.11,2.12-.11a5.93,5.93,0,0,1,1.79.19,1.11,1.11,0,0,1,.73.6,1.72,1.72,0,0,1,0,.68,4,4,0,0,0,.11,1.24c0,.18.17.39.37.34s.24-.22.25-.37c.05-.72,0-1.25,0-2.09,0-.39,0-.93,0-1.32S355.13,294,355.12,293.56Z" style="fill:#455a64"></path><path d="M358.86,318.21c.09.87.61,6.61-1.23,7.68s-2.8-3.35-2.8-3.35-4.45-1.14-11.17,1.52c.28.93-.9,4-2.67,3.41s-2.11-7.2-2.11-7.29c-.59,5.77-.61,10.34,2.47,14.41,3.9,5.14,12.6,1.41,15.19-2.28s3.11-6.38,2.55-12.39C359,319.32,359,318.75,358.86,318.21Z" style="fill:#37474f"></path><path d="M354.29,322.94c-.09,2.17,2.4,1.39,2.67-1.68s-1.24-10.35-.93-15.64c.35-7.27.5-12-.91-12.06,0,.08,0,.15,0,.23l0,3a11.22,11.22,0,0,1,0,1.3c-.21,4.45-1,13-.83,17.09A61.08,61.08,0,0,1,354.29,322.94Z" style="fill:#37474f"></path><path d="M344.42,324a60.9,60.9,0,0,1-.93-7.61c-.27-4-1.81-12.17-2.53-16.54a9.24,9.24,0,0,1-.36-2.47c-.06-.61-.11-1.37-.16-2,0-.05,0-.09,0-.14-.91.4-1,3.85-.7,5.67s.63,3.77.93,6.38c.94,5.16.29,12.69.93,15.67S344.77,326.12,344.42,324Z" style="fill:#37474f"></path><path d="M343.51,324.24a.7.7,0,0,0,.19-.06,19.34,19.34,0,0,1,11-1.19.57.57,0,0,0,.66-.34.42.42,0,0,0-.34-.56,20.32,20.32,0,0,0-11.73,1.28.47.47,0,0,0-.26.63A.52.52,0,0,0,343.51,324.24Z" style="fill:#263238"></path><path d="M342.58,319.53l.18,0A23.82,23.82,0,0,1,355,318.15a.58.58,0,0,0,.65-.36.42.42,0,0,0-.36-.54,24.71,24.71,0,0,0-13,1.41.46.46,0,0,0-.28.62A.51.51,0,0,0,342.58,319.53Z" style="fill:#263238"></path><path d="M355,313.67a.58.58,0,0,0,.46-.32.42.42,0,0,0-.3-.58c-6.25-1.78-12.68,1.18-12.95,1.3a.46.46,0,0,0-.26.63.55.55,0,0,0,.7.18c.06,0,6.31-2.89,12.12-1.23A.6.6,0,0,0,355,313.67Z" style="fill:#263238"></path><path d="M354.81,309.44a.57.57,0,0,0,.46-.31.42.42,0,0,0-.28-.59,18.73,18.73,0,0,0-13.22,1.28.46.46,0,0,0-.21.64.56.56,0,0,0,.72.14,17.79,17.79,0,0,1,12.3-1.18A.62.62,0,0,0,354.81,309.44Z" style="fill:#263238"></path><path d="M354.64,304.69a.56.56,0,0,0,.46-.31.42.42,0,0,0-.28-.59c-6.43-2-13,1.27-13.31,1.41a.46.46,0,0,0-.23.64.53.53,0,0,0,.71.15c.07,0,6.45-3.22,12.42-1.32A.58.58,0,0,0,354.64,304.69Z" style="fill:#263238"></path><path d="M352.82,146.61c3.31,35,2.88,82.56,2.88,82.56a134.14,134.14,0,0,1,1.77,22.09c-.15,13.92-1.52,33.88-1.52,33.88s-8.28,5.93-17.73,1c0,0-4.53-25.27-7.33-45.51-2.24-16.18-6.3-40.23-6.3-40.23l-4.15,23.31s.7,10,.53,17c-.2,8.13-4.75,39.33-4.75,39.33s-9.07,6.1-17.12,0c0,0-2.39-45.6-2.78-55.37-.78-19.18-.64-56.4-.39-81.18Z" style="fill:#37474f"></path><path d="M324.59,200.42l-4.34-28.26S311,171,306.13,166.65c0,0,3.16,5.74,11.95,7.85l4.28,26-1.92,23.21Z" style="fill:#263238"></path><path d="M355.87,288.3c-2.14,2.42-10.78,4.26-17.33,1.27l-.8-5.46c4.95,2.13,14.09,1.34,18.56-1.67Z" style="fill:#263238"></path><path d="M316.28,280.86c-2.29,2.27-10.89,3.52-17.29.07l-.36-5.52c4.85,2.48,13.71,2.47,18.4-.21Z" style="fill:#263238"></path></g><g id="freepik--Top--inject-428"><path d="M280.74,123s-22.29,20-26,22.6-10.57,6.79-10.57,6.79l2.32,1.26s7.43,8.46,12.25,5.47a33.87,33.87,0,0,0,3.35-2.19c1.45-1.15,2.48-2.32,3.59-3.26a44.53,44.53,0,0,1,5.91-4.08c11-6.68,17.82-11.77,22-14.35s4.75-5.11,7.83-10.38c5.23-9,11-22.22,11-22.22l-6.12-26.9C297.4,78,295.45,82.48,290.9,95.26,284,114.82,280.74,123,280.74,123Z" style="fill:#b16668"></path><path d="M306.21,75.28c-6,1.58-10,4.63-12.88,12.27s-12.91,35.2-12.91,35.2l-17.2,15.51a16.3,16.3,0,0,1,5.19,4.33,22.78,22.78,0,0,1,3.22,7s8.11-4.49,16.29-9.89,8.56-5.5,11.79-10.6,13.48-26.78,13.48-26.78Z" style="fill:#37474f"></path><path id="freepik--Chest--inject-428" d="M336.42,72.5c3.62.75,8,1.7,8,1.7,9.15,4.07,10.62,4.69,12.55,5.52a144.15,144.15,0,0,1-1.84,31.91,200.38,200.38,0,0,0-1.38,22c-.1,10.49,0,17.78,0,17.78s-8.89,9.3-34.45,7.38c-20.06-1.51-23.43-9-23.43-9s-.32-26.69.21-41.48c.68-19.43,5.79-29.64,10.12-33l12.86-2.58Z" style="fill:#455a64"></path><g id="freepik--Head--inject-428"><path d="M346.19,36.53a7.46,7.46,0,0,0-3.93-3.75c-.74-4.27-6.16-9.38-16.62-9.94-8.58-.46-13.59,2.49-16.58,7.49s-1,11.47-1,11.47l30,10.27-.28,5.3-.2,7.61a4.91,4.91,0,0,0,2.84-2.27,41.89,41.89,0,0,0,4.2-10.6C347.32,42.22,347.18,38.43,346.19,36.53Z" style="fill:#263238"></path><path d="M344.73,59.6c-3.94,1.92-5.74-1.2-5.74-1.2l-.59,15.69c-4.21,5.63-11.59,3.67-17.53,10.69l-1.8-.09A15.69,15.69,0,0,1,318.92,73V69.39a24.23,24.23,0,0,1-3.41-.33c-3.49-.55-5.68-3.33-6.72-7.11-1.54-5.59-2.14-14.54,0-24.06.4-1.84,1.2-3.84,2.89-4.68,4.19-2.07,17-2.67,20.26,2.43-.47,3.09.41,6.5,3.25,7.53.08,4.88.77,7.25,2.69,8,1.56.66,2.32-1.75,3.4-2.87a4.39,4.39,0,0,1,6.84,1.57A7.16,7.16,0,0,1,344.73,59.6Z" style="fill:#b16668"></path><path d="M318.93,69.39c4.58,0,8.65-.59,11.35-1.73s5.1-4.8,5.88-8.42c0,2.92-1.28,8.09-5.37,10.24s-8.87,2.27-11.87,2.33Z" style="fill:#9a4a4d"></path><path d="M324.46,43.15l4.17.48a2.2,2.2,0,0,0-1.91-2.38A2,2,0,0,0,324.46,43.15Z" style="fill:#263238"></path><path d="M311.05,42.14,315,40.58a2,2,0,0,0-2.68-1.23A2.23,2.23,0,0,0,311.05,42.14Z" style="fill:#263238"></path><path d="M327.89,47.1a1.7,1.7,0,0,1-1.77,1.65,1.71,1.71,0,1,1,1.77-1.65Z" style="fill:#263238"></path><path d="M314.35,46.4a1.71,1.71,0,1,1-1.65-1.77A1.56,1.56,0,0,1,314.35,46.4Z" style="fill:#263238"></path><path d="M321,43.64l-1.41,10.89-5.76-2.12A25.41,25.41,0,0,1,321,43.64Z" style="fill:#9a4a4d"></path><path d="M323.92,57l-4.45,1.47A2.3,2.3,0,0,0,322.39,60,2.45,2.45,0,0,0,323.92,57Z" style="fill:#9a4a4d"></path><path d="M323.45,57.76a2.71,2.71,0,0,1,.56,0A2.4,2.4,0,0,1,322.39,60a2.43,2.43,0,0,1-.75.11A2.15,2.15,0,0,1,323.45,57.76Z" style="fill:#f28f8f"></path></g><g id="freepik--Tie--inject-428"><path d="M316.89,87s-2.81-5-2.85-7.07l3.23-3.47,1.14,8.29Z" style="fill:#263238"></path><polygon points="321.12 84.78 326.66 80.84 331.41 83.9 322.87 88.48 321.12 84.78" style="fill:#263238"></polygon><path d="M321.77,138.58c1.21-11.58-1.13-43.19-.9-47.29L318,91.06c-1.88,5-6.82,37.53-6.94,45.49-.05,3.83,3.72,10.6,5,10.84S321.52,141.05,321.77,138.58Z" style="fill:#37474f"></path><path d="M317.76,91.79c.07-.24.16-.53.23-.72h0l2.88.23h0c0,.34,0,.78,0,1.28A5,5,0,0,1,317.76,91.79Z" style="fill:#263238"></path><path d="M321.12,84.78a12.56,12.56,0,0,0-2.71-.06A6.44,6.44,0,0,0,316.89,87a9.78,9.78,0,0,0,1.1,4.09,3.45,3.45,0,0,0,2.88.23,6,6,0,0,0,2-2.81A5.43,5.43,0,0,0,321.12,84.78Z" style="fill:#37474f"></path><path d="M320.65,84.72l.47.06a17.78,17.78,0,0,1,3.4-2.85c.8-.38,3.84,5.31,4.4,6.79s.45,1.45,2.49.23a38.52,38.52,0,0,0,9.36-8.2c3.3-4,3.64-6.52,3.64-6.52a44,44,0,0,1-3.06-4.37c-1.17-2.36-1.35-3.28-2.66-3.14l-.08,2.15c-.32,2-2.4,2.61-5.31,4.9s-7.55,4.37-8.67,5.35A40.87,40.87,0,0,0,320.65,84.72Z" style="fill:#37474f"></path><path d="M311.3,84.47c.27.83,3.17-5.44,4.44-5.24.61.07,2.07,3.58,3.13,5.46h.2a23.57,23.57,0,0,1-.66-5.94,43.87,43.87,0,0,1,.51-5.78V69.39c-.42,0-.82,0-1.17-.06-.34.31-5.41,5.57-5.94,8A21.46,21.46,0,0,0,311.3,84.47Z" style="fill:#37474f"></path></g><path d="M376.66,123.13c1,7.65,1.22,9,.74,14.06-.37,3.82-.76,4.47-2.2,11.41s-5.06,19.62-5,21.47a31.15,31.15,0,0,1,0,5.29,22.17,22.17,0,0,1-1.46,6.12c-.53,1.35-.87,2.83-1.48,4.14a15.38,15.38,0,0,1-1.91,2.49c-.69.92-.94,2.09-1.8,2.9-1.5,1.43-3.08,1.64-4.5,2.3-.62.91-1.66,2.83-2.35,3.68-1.77,2.17-2.17-1.38-2.11-2.58a18.4,18.4,0,0,1,.72-3.82,85.77,85.77,0,0,0,2.18-9.49c.1-.57.78-2.92-.15-2.92a1.14,1.14,0,0,0-.77.46,26.86,26.86,0,0,0-1.64,2.41,14.51,14.51,0,0,1-1.52,1.71,4.87,4.87,0,0,1-1.52,1.19c-.6.26-2.82.43-2.91-.61a1,1,0,0,1,.11-.48c.46-1.08,1-2.11,1.47-3.18a30.47,30.47,0,0,0,1.3-3.27c1-3.5,1.88-6.38,4-9.27,3.76-5.19,4.55-35.83,4.55-35.83l-5.05-21.13a46.58,46.58,0,0,1-2.92-17.77c.33-10,4.08-12.71,4.08-12.71,7.78,3.12,12,5.56,14.05,12.72S376,118,376.66,123.13Z" style="fill:#b16668"></path><path d="M377.65,128.59c-.22-1.82-1.36-11.32-4.18-25.23-2.67-13.21-3.36-14.52-6.06-17.56-2.12-2.4-7.45-4.94-11.09-6.36,0,0-4.73,2.81-4.86,11.53-.12,8.3,3.43,19.83,3.43,19.83l4.81,21.41-.84,21.52c3.71-1.3,12,1.39,13.9,5.06,0,0,2.8-9.56,4.25-16.33A41.94,41.94,0,0,0,377.65,128.59Z" style="fill:#37474f"></path><path d="M359,151.46l-.55,5.95s2.51-.36,8,1.19c4.32,1.22,5.71,3,5.71,3l1.57-5.9S369.18,150.88,359,151.46Z" style="fill:#455a64"></path></g></g><g id="freepik--Character--inject-428"><path id="freepik--Arm--inject-428" d="M144.69,128.47c-6.09,1.46-12.61,4-17.15,19.65-3.33,11.5-5.25,17-6.74,24.33-.68,3.37-1,5.64-.42,11.55,1,9.69,2.39,23.65,2.39,28.65a50.51,50.51,0,0,0,2.15,15.82c1.58,5.79,8.49,8.44,9.65,9.11.26,1,.41,2.37,1,2.68.86.43,2.46-1.35,2.36-2.92-.26-4.37-4.09-12.18-3.27-14.42s1.78,3.47,3.42,5c2.14,2,3.63,1,3.32-.14-.45-1.71-1.52-4.79-2.25-8.29-.89-4.29-2.55-5.52-3.31-9s.17-30.59.17-30.59l8.65-26.5Z" style="fill:#ffbda7"></path><g id="freepik--bottom--inject-428"><g id="freepik--bottom--inject-428"><path d="M170.24,230.68c-1.84,19.46-2.73,24.77-4.9,39.59-1,6.62-2.79,17.17-4.82,29.18-1.7,10-9,43.67-9,43.67-.68,4.15-1.58,12.35-1,17.51s1.85,9.49,6.27,10.48c-2.55,1.11-11.56,5.92-14-.66a38.36,38.36,0,0,1-1.1-4c-.36-1.43-.73-2.86-1.09-4.29a24.71,24.71,0,0,0-2.31-6.47,18.55,18.55,0,0,0-2.13-2.85,6.66,6.66,0,0,1-1-1.21c-.2-.39-.47-.72-.66-1.11a6.3,6.3,0,0,1-.46-3.21c.16-1.78,2.44-2.78,3-7.27.19-1.52-1-15.08-1.74-31.77a146.71,146.71,0,0,1,.38-19.23,107.35,107.35,0,0,1,3.78-14.8l-1.74-23.87-.32-17.61a55.16,55.16,0,0,1-2-25.19,100.47,100.47,0,0,1,7-23h45.48Z" style="fill:#ffbda7"></path><path d="M149.13,380.16s-1.55,2-7.87-1.77-7.74-7.39-7.74-7.39,3.64-13.24,7.32-9.27S149.13,380.16,149.13,380.16Z"></path><path d="M135.68,344.32c1.48-.54,4.92,1.49,6.81,3.64,2.48,2.84,2.7,6.22,3.6,10.29,1,4.34,3,10.4,5,12,1.18.9,2.35.66,3.84.19a5.65,5.65,0,0,1-1.19-.88c1.43,0,3.39-.27,4.64-.31,4.68-.15,7.52,2.27,7.37,4.78-.19,2-8.87,7.82-14.51,7.26-4.68-.46-6.38.11-8-7.07s-2.05-11.15-4.75-6.8-5,14.64-5,14.64a3.49,3.49,0,0,1-3.82-.54s.71-6.66.71-10.93-1.3-11.18-.3-16.18S134.23,344.81,135.68,344.32Z" style="fill:#455a64"></path><path d="M142.46,184.59h46.36s8.62,24.72,8.56,60.63c0,19.55-.44,24.92-1.22,39.88-.36,6.68-1.2,17.35-2.12,29.5-.77,10.12-4.89,44.31-4.89,44.31-.3,4.19-.44,12.44.6,17.53s2.71,9.28,7.2,9.86c-2.43,1.33-11,7-14,.63a39.78,39.78,0,0,1-1.46-3.86L180,378.9a24.59,24.59,0,0,0-2.9-6.23,18.7,18.7,0,0,0-2.38-2.65,6.73,6.73,0,0,1-1.09-1.11c-.23-.36-.54-.67-.75-1a6.31,6.31,0,0,1-.76-3.16c0-1.79,2.18-3,2.35-7.52.06-1.52-2.39-14.92-4.66-31.47-.79-5.79-1.57-15.2-1.39-19.18a106.48,106.48,0,0,1,2.4-15.09l-3.93-23.61" style="fill:#ffbda7"></path><path d="M166.91,267.84l-4-32.87s-11.95-2-13.39-13.57c-.42,6.86,2.13,12.82,9.52,16.14l5.38,30.37-1.75,19Z" style="fill:#f0997a"></path><path d="M190.14,396s-1.36,2.14-8-1-8.39-6.65-8.39-6.65,2.41-13.52,6.44-9.9S190.14,396,190.14,396Z"></path><path d="M173.45,361.57c1.41-.67,5,1,7.11,3,2.73,2.59,3.26,5.94,4.53,9.91,1.36,4.23,3.91,10.08,6.13,11.47,1.26.79,2.41.45,3.85-.16a6.57,6.57,0,0,1-1.27-.76c1.43-.11,3.36-.59,4.59-.75,4.65-.58,7.71,1.57,7.78,4.09,0,2-8.1,8.6-13.77,8.57-4.71,0-6.34.69-8.61-6.31s-3.08-10.91-5.36-6.34-3.65,15-3.65,15a3.49,3.49,0,0,1-3.85-.19s.09-6.7-.3-10.95-2.32-11-1.79-16.08S172.05,362.19,173.45,361.57Z" style="fill:#455a64"></path></g><path d="M197.86,229.32c-2.24-23.35-4.38-31.29-6.11-44.25l-50.46-1.62c-1.65,6.66-5.14,15.15-6.91,24.32-1.58,8.21-.32,17.62.65,29,.64,7.52-1.44,38.7-1.44,38.7s1.32,4.86,21.19,8.23,30.93-1.13,30.93-1.13l2.54-26.27L191,282.19s4.89-.36,8.1-3C199.09,279.22,199.38,245.29,197.86,229.32Z" style="fill:#37474f"></path></g><g id="freepik--top--inject-428"><path d="M198.49,150.21c-3.54-8.9-9-14.06-11.75-15.82-6.07-1.89-16.5-4.83-16.5-4.83S166,133.91,158.55,132c-5.43-1.39-5.88-4.18-5.88-4.18a69.16,69.16,0,0,0-7.55.56c-1.93.3-6.3,1.94-8.11,9.88-2.69,11.76,2.92,24.62,3.37,33.58.23,4.57-1.9,9.67.91,11.6,6.84,4.57,17.29,6.81,26,6.93,8.09.11,20.63-2.58,24.44-5.31,2.13-1.62.32-8,2-15.35C199.14,164.65,201.29,157.25,198.49,150.21Z" style="fill:#ebebeb"></path><path d="M185,90.82c1.4-1.75,1.3-4.45.39-6.51s-2.69-4.2-7.78-6.58c-6.05-2.84-23.59-5.53-30.07,6.6-.91,1.7,16.12,31.09,15.57,37.37,4-4.54,17.11-20.45,17.11-20.45,3.2-1.51,5.12-2.77,5.68-5.86A7.61,7.61,0,0,0,185,90.82Z" style="fill:#263238"></path><path d="M183.05,99.46s4.67,7,4.21,7.61a22.85,22.85,0,0,1-3.17,2.28Z" style="fill:#f0997a"></path><path d="M177.08,86.59c3,1.28,5.64,3.44,6.81,9.87.31,1.68-.92,4-.23,6.27,2.94,9.52-.88,17.88-2.68,19.72-1.22,1.25-7.81,2-11.32,1.21-4.38-1-12.89-5.13-17.65-11.74-5.61-7.77-7.27-18.46-1.54-23C158.52,82.53,173.87,85.23,177.08,86.59Z" style="fill:#ffbda7"></path><path d="M171.5,121.13l-1.26,8.44c-2.61,3-7.53,3.61-11.43,2.75-2.79-.62-5.6-2.35-6.14-4.49l.84-10.41Z" style="fill:#ffbda7"></path><path d="M180.64,122.71c-1.51.91-4.94,1.75-9.57,1.29l.35-2.47a23.81,23.81,0,0,0,4.44,1.14A16.2,16.2,0,0,0,180.64,122.71Z" style="fill:#f0997a"></path><path d="M179.21,87.54c.32,4.19-2.25,5.61-4.09,6.51a9.11,9.11,0,0,1,1,4.91c-.34,2.15-1.07,3.92-3.14,4.7-1.26.48-1.66-.06-2.16-1.06-.7-1.41-1.6-3.58-4.67-3-3.51.62-4.24,6-2,9.39,1,1.5,2.49,2.78,4.07,2.8a3.29,3.29,0,0,0,2.77-1.08s-.36,6.47-5.18,10.69c0,0-7.88,1.62-13.27-1.43-2.42-2.66-4.31-5.41-7.29-9.37-6.89-9.16-6.37-25.87,4.61-29.4.53-.16,7.08-2.45,12-1.58C177,82.26,179.15,86.82,179.21,87.54Z" style="fill:#263238"></path><path d="M170.91,111.13,170.73,154s-20.93,4.84-30.1-3.71V96.51s5.65,12,15.28,16.14S170.91,111.13,170.91,111.13Z" style="fill:#263238"></path><g id="freepik--top--inject-428"><path d="M238.8,175.77c-6.53,3.72-15.55,9.09-20.81,11.51-6.73,3.1-8.61,2.24-14.44-4.36-4.06-4.6-9.72-10.3-14-16.35-6.7-9.52-7.61-12.38-8-17-1.08-12.38,3.61-15.69,3.61-15.69,10.18,3,11.86,7.72,17.5,16.77C210.54,163.33,215,170.3,215,170.3s18.38-7.07,20.41-8.24,4.42-4.5,5.86-7.51,2.74-4.21,3.54-6.85c.3-1,.59-1.62.82-1.74.67-.38,1.07-.23,1.62.3a3.26,3.26,0,0,1,.87,2.07,13.45,13.45,0,0,1-.27,3.63c-.17,1-.33,1.93-.49,2.9a2.14,2.14,0,0,0,0,1.15,2.08,2.08,0,0,0,1.49,1,24.87,24.87,0,0,0,12.75-.42,6.75,6.75,0,0,0,1.48-.52c.1.16,0,.47,0,.65a6.7,6.7,0,0,1-1.7,3.41,35.28,35.28,0,0,0-2.76,2.85c-.44.66-.72,1.42-1.15,2.09a9.22,9.22,0,0,1-1.72,1.81c-3.08,2.64-6.84,5.81-10.42,6.42-.84.15-2.21.27-6.58,2.46" style="fill:#ffbda7"></path></g></g></g><path d="M262.89,148.5c-2.33,1.61-4.61,1.49-7.8,1.54a19.69,19.69,0,0,0-3.07.18,5.77,5.77,0,0,0-1.08.3,6.93,6.93,0,0,0-1.19.84c-1.68,1.18-3.87,1.84-5,3.62-.68,1-.91,2.32-1.58,3.35a9.87,9.87,0,0,0-.86,1.28,1.39,1.39,0,0,0,.06,1.46,1.58,1.58,0,0,0,.61.4,3.59,3.59,0,0,0,2.56.08c1.71-.58,2.72-2.31,4.16-3.4a10.06,10.06,0,0,1,3.72-1.61,13.18,13.18,0,0,1,1.84-.41,8.33,8.33,0,0,1,1.49.13C258.85,156.44,262.89,148.5,262.89,148.5Z" style="fill:#b16668"></path><path d="M245.38,173.31a4.08,4.08,0,0,0,2.13-1.48c.67-1.26,1.58-2,1.88-3.43a8,8,0,0,1,.39-1.55,5.82,5.82,0,0,1,1.56-2c.6-.56,1.07-1.21,1.71-1.76.31-.26.87-.52,1.23-.16a5.12,5.12,0,0,1,.67-1.51c.34-.47,1.28-1.29,1.87-.75a1.7,1.7,0,0,1,.34.54l1.68,3.53a3.31,3.31,0,0,1,.33.91,2.87,2.87,0,0,1-.78,2.12,4.64,4.64,0,0,1-1,.94c-.46.31-1,.49-1.46.8-.95.65-1.49,1.83-2.53,2.33a21.17,21.17,0,0,1-2.07.58c-.55.22-1,.59-1.56.85C249.07,173.59,246.17,173.39,245.38,173.31Z" style="fill:#b16668"></path></g></g><g id="freepik--speech-bubble--inject-428"><g id="freepik--speech-bubble--inject-428"><g id="freepik--speech-bubble--inject-428"><path d="M267.31,71.45a27.67,27.67,0,0,1-7.49,19l-2.3,2.19a27.75,27.75,0,0,1-39.18-39.06l2.19-2.31a27.76,27.76,0,0,1,46.78,20.2Z" style="fill:#fff"></path><path d="M239.48,41.36a30.13,30.13,0,0,0-4.93,59.85l3.4,8.72a1.75,1.75,0,0,0,3.26,0l3.37-8.74a30.13,30.13,0,0,0-5.1-59.83Zm27.83,30.09a27.67,27.67,0,0,1-7.49,19l-2.3,2.19a27.75,27.75,0,0,1-39.18-39.06l2.19-2.31a27.76,27.76,0,0,1,46.78,20.2Z" style="fill:#455a64"></path><path d="M267.31,71.45a27.67,27.67,0,0,1-7.49,19l-2.3,2.19a27.75,27.75,0,0,1-39.18-39.06l2.19-2.31a27.76,27.76,0,0,1,46.78,20.2Z" style="fill:#fff;opacity:0.7000000000000001"></path></g><g id="freepik--Check--inject-428"><path d="M235.8,86.5a4,4,0,0,1-2.92-1.27l-9.06-9.68a4,4,0,0,1,5.84-5.47l5.89,6.29,13.93-17.65a4,4,0,1,1,6.28,5L238.94,85a4,4,0,0,1-3,1.51Z" style="fill:#00EA8E"></path></g></g></g></svg>